<svg xmlns="http://www.w3.org/2000/svg" xmlns:xlink="http://www.w3.org/1999/xlink" xmlns:lucid="lucid" width="765.74" height="444.46"><g transform="translate(-1612.2254894567948 20.657480318063943)" lucid:page-tab-id="0_0"><path d="M2257.76-14.16a6 6 0 0 1 6-6h108.2a6 6 0 0 1 6 6v28a6 6 0 0 1-6 6h-108.2a6 6 0 0 1-6-6z" stroke="#000" stroke-opacity="0" fill="#fff" fill-opacity="0"/><use xlink:href="#a" transform="matrix(1,0,0,1,2262.7648595650035,-15.15748031496063) translate(4.537037037037045 23.208333333333332)"/><use xlink:href="#b" transform="matrix(1,0,0,1,2262.7648595650035,-15.15748031496063) translate(66.61111111111111 23.208333333333332)"/><path d="M2257.9 65.84a6 6 0 0 1 6-6h48.07a6 6 0 0 1 6 6v28a6 6 0 0 1-6 6h-48.08a6 6 0 0 1-6-6z" stroke="#000" stroke-opacity="0" fill="#fff" fill-opacity="0"/><use xlink:href="#c" transform="matrix(1,0,0,1,2262.891923854416,64.8425196850394) translate(20.135802469135804 19.65277777777778)"/><path d="M2258.16 107.42a6 6 0 0 1 6-6h48.08a6 6 0 0 1 6 6v28a6 6 0 0 1-6 6h-48.08a6 6 0 0 1-6-6z" stroke="#000" stroke-opacity="0" fill="#fff" fill-opacity="0"/><use xlink:href="#d" transform="matrix(1,0,0,1,2263.1621576681555,106.41732283464555) translate(20.135802469135804 19.65277777777778)"/><path d="M2257.9 147.42a6 6 0 0 1 6-6h48.07a6 6 0 0 1 6 6v28a6 6 0 0 1-6 6h-48.08a6 6 0 0 1-6-6z" stroke="#000" stroke-opacity="0" fill="#fff" fill-opacity="0"/><use xlink:href="#e" transform="matrix(1,0,0,1,2262.891923854416,146.41732283464555) translate(20.135802469135804 19.65277777777778)"/><path d="M2317.97 75.84a6 6 0 0 1 6-6h8a6 6 0 0 1 6 6v8a6 6 0 0 1-6 6h-8a6 6 0 0 1-6-6z" stroke="#3a414a" fill="#b8f5ed"/><path d="M2317.97 116.63a6 6 0 0 1 6-6h8a6 6 0 0 1 6 6v8a6 6 0 0 1-6 6h-8a6 6 0 0 1-6-6z" stroke="#3a414a" fill="#c3f7c8"/><path d="M2318.24 157.42a6 6 0 0 1 6-6h8a6 6 0 0 1 6 6v8a6 6 0 0 1-6 6h-8a6 6 0 0 1-6-6z" stroke="#3a414a" fill="#fff7a1"/><path d="M2257.9 25.84a6 6 0 0 1 6-6h48.07a6 6 0 0 1 6 6v28a6 6 0 0 1-6 6h-48.08a6 6 0 0 1-6-6z" stroke="#000" stroke-opacity="0" fill="#fff" fill-opacity="0"/><use xlink:href="#f" transform="matrix(1,0,0,1,2262.891923854416,24.842519685039363) translate(7.79012345679012 19.65277777777778)"/><path d="M1612.85 187.42a6 6 0 0 1 6-6h149.26a6 6 0 0 1 6 6v68a6 6 0 0 1-6 6h-149.25a6 6 0 0 1-6-6z" stroke="#3a414a" fill="#f2f3f5"/><use xlink:href="#g" transform="matrix(1,0,0,1,1624.8525537756757,193.4173228346455) translate(0 33.55555555555556)"/><path d="M1612.72 288.2a6 6 0 0 1 6-6h68.63a6 6 0 0 1 6 6v66.67a6 6 0 0 1-6 6h-68.63a6 6 0 0 1-6-6z" stroke="#3a414a" fill="#f2f3f5"/><use xlink:href="#g" transform="matrix(1,0,0,1,1624.7254894862626,294.20472440944866) translate(0 33.30555555555556)"/><path d="M1694.1 288.2a6 6 0 0 1 6-6h68a6 6 0 0 1 6 6v66.67a6 6 0 0 1-6 6h-68a6 6 0 0 1-6-6z" stroke="#3a414a" fill="#fff7a1"/><use xlink:href="#h" transform="matrix(1,0,0,1,1706.112396295361,294.20472440944866) translate(0 33.30555555555556)"/><path d="M1612.72 86.63a6 6 0 0 1 6-6H1929a6 6 0 0 1 6 6v68a6 6 0 0 1-6 6H1618.7a6 6 0 0 1-6-6z" stroke="#3a414a" fill="#f2f3f5"/><use xlink:href="#g" transform="matrix(1,0,0,1,1624.7254894862635,92.62992125984246) translate(0 33.55555555555556)"/><path d="M1612.72-14.16a6 6 0 0 1 6-6h633.04a6 6 0 0 1 6 6v68a6 6 0 0 1-6 6h-633.04a6 6 0 0 1-6-6z" stroke="#3a414a" fill="#f2f3f5"/><use xlink:href="#g" transform="matrix(1,0,0,1,1624.725489486263,-8.15748031496063) translate(0 33.55555555555556)"/><path d="M1653.16 262.42l-.12 18.78" stroke="#3a414a" fill="none"/><path d="M1653.66 262.43h-1v-.5h1zM1653.54 281.2v.5h-1v-.5z" stroke="#3a414a" stroke-width=".05" fill="#3a414a"/><path d="M1734.1 262.42v18.78" stroke="#3a414a" fill="none"/><path d="M1734.6 262.43h-1v-.5h1zM1734.6 281.7h-1v-.5h1z" stroke="#3a414a" stroke-width=".05" fill="#3a414a"/><path d="M1693.48 161.63v18.8" stroke="#3a414a" fill="none"/><path d="M1693.98 161.64h-1v-.5h1zM1693.98 180.92h-1v-.5h1z" stroke="#3a414a" stroke-width=".05" fill="#3a414a"/><path d="M1854.74 161.63v18.8" stroke="#3a414a" fill="none"/><path d="M1855.24 161.64h-1v-.5h1zM1855.24 180.92h-1v-.5h1z" stroke="#3a414a" stroke-width=".05" fill="#3a414a"/><path d="M1774.23 60.84l-.36 18.8" stroke="#3a414a" fill="none"/><path d="M1774.73 60.87l-1-.02v-.5h1zM1774.37 79.63v.5h-1v-.52z" stroke="#3a414a" stroke-width=".05" fill="#3a414a"/><path d="M2096.57 60.84v18.8" stroke="#3a414a" fill="none"/><path d="M2097.07 60.85h-1v-.5h1zM2097.07 80.13h-1v-.5h1z" stroke="#3a414a" stroke-width=".05" fill="#3a414a"/><path d="M1774.1 187.42a6 6 0 0 1 6-6h149.27a6 6 0 0 1 6 6v68a6 6 0 0 1-6 6H1780.1a6 6 0 0 1-6-6z" stroke="#3a414a" fill="#c3f7c8"/><use xlink:href="#h" transform="matrix(1,0,0,1,1786.112396295361,193.4173228346455) translate(0 33.55555555555556)"/><path d="M1935.37 86.63a6 6 0 0 1 6-6h310.4a6 6 0 0 1 6 6v68a6 6 0 0 1-6 6h-310.4a6 6 0 0 1-6-6z" stroke="#3a414a" fill="#b8f5ed"/><use xlink:href="#h" transform="matrix(1,0,0,1,1947.3722388150454,92.62992125984246) translate(0 33.55555555555556)"/><path d="M1774.1 288.2a6 6 0 0 1 6-6h68.64a6 6 0 0 1 6 6v66.67a6 6 0 0 1-6 6h-68.63a6 6 0 0 1-6-6z" stroke="#3a414a" fill="#f2f3f5"/><use xlink:href="#g" transform="matrix(1,0,0,1,1786.1123962953611,294.20472440944866) translate(0 33.30555555555556)"/><path d="M1855.5 288.2a6 6 0 0 1 6-6h68a6 6 0 0 1 6 6v66.67a6 6 0 0 1-6 6h-68a6 6 0 0 1-6-6z" stroke="#3a414a" fill="#f2f3f5"/><use xlink:href="#g" transform="matrix(1,0,0,1,1867.4993031044592,294.20472440944866) translate(0 33.30555555555556)"/><path d="M1814.55 262.42l-.12 18.78M1814.55 262.43v-.5" stroke="#3a414a" fill="none"/><path d="M1814.93 281.2v.5h-1v-.5z" stroke="#3a414a" stroke-width=".05" fill="#3a414a"/><path d="M1895.5 262.42v18.78M1895.5 262.43v-.5" stroke="#3a414a" fill="none"/><path d="M1896 281.7h-1v-.5h1z" stroke="#3a414a" stroke-width=".05" fill="#3a414a"/><path d="M1935.63 187.42a6 6 0 0 1 6-6h149.26a6 6 0 0 1 6 6v68a6 6 0 0 1-6 6h-149.27a6 6 0 0 1-6-6z" stroke="#3a414a" fill="#f2f3f5"/><use xlink:href="#g" transform="matrix(1,0,0,1,1947.6263673938727,193.4173228346455) translate(0 33.55555555555556)"/><path d="M1935.5 288.2a6 6 0 0 1 6-6h68.63a6 6 0 0 1 6 6v66.67a6 6 0 0 1-6 6h-68.63a6 6 0 0 1-6-6z" stroke="#3a414a" fill="#f2f3f5"/><use xlink:href="#g" transform="matrix(1,0,0,1,1947.4993031044596,294.20472440944866) translate(0 33.30555555555556)"/><path d="M2016.9 288.2a6 6 0 0 1 6-6h68a6 6 0 0 1 6 6v66.67a6 6 0 0 1-6 6h-68a6 6 0 0 1-6-6z" stroke="#3a414a" fill="#f2f3f5"/><use xlink:href="#g" transform="matrix(1,0,0,1,2028.8862099135576,294.20472440944866) translate(0 33.30555555555556)"/><path d="M1975.94 262.42l-.12 18.78" stroke="#3a414a" fill="none"/><path d="M1976.44 262.43h-1v-.5h1zM1976.32 281.2v.5h-1v-.5z" stroke="#3a414a" stroke-width=".05" fill="#3a414a"/><path d="M2056.9 262.42v18.78" stroke="#3a414a" fill="none"/><path d="M2057.4 262.43h-1v-.5h1zM2057.4 281.7h-1v-.5h1z" stroke="#3a414a" stroke-width=".05" fill="#3a414a"/><path d="M2016.26 161.63v18.8M2016.26 161.64v-.5" stroke="#3a414a" fill="none"/><path d="M2016.76 180.92h-1v-.5h1z" stroke="#3a414a" stroke-width=".05" fill="#3a414a"/><path d="M2177.52 161.63v18.8M2177.52 161.64v-.5" stroke="#3a414a" fill="none"/><path d="M2178.02 180.92h-1v-.5h1z" stroke="#3a414a" stroke-width=".05" fill="#3a414a"/><path d="M2096.9 187.42a6 6 0 0 1 6-6h149.25a6 6 0 0 1 6 6v68a6 6 0 0 1-6 6H2102.9a6 6 0 0 1-6-6z" stroke="#3a414a" fill="#f2f3f5"/><use xlink:href="#g" transform="matrix(1,0,0,1,2108.8862099135576,193.4173228346455) translate(0 33.55555555555556)"/><path d="M2096.9 288.2a6 6 0 0 1 6-6h68.62a6 6 0 0 1 6 6v66.67a6 6 0 0 1-6 6h-68.63a6 6 0 0 1-6-6z" stroke="#3a414a" fill="#f2f3f5"/><use xlink:href="#g" transform="matrix(1,0,0,1,2108.886209913558,294.20472440944866) translate(0 33.30555555555556)"/><path d="M2178.27 288.2a6 6 0 0 1 6-6h68a6 6 0 0 1 6 6v66.67a6 6 0 0 1-6 6h-68a6 6 0 0 1-6-6z" stroke="#3a414a" fill="#f2f3f5"/><use xlink:href="#g" transform="matrix(1,0,0,1,2190.273116722656,294.20472440944866) translate(0 33.30555555555556)"/><path d="M2137.32 262.42l-.12 18.78M2137.32 262.43v-.5" stroke="#3a414a" fill="none"/><path d="M2137.7 281.2v.5h-1v-.5z" stroke="#3a414a" stroke-width=".05" fill="#3a414a"/><path d="M2218.27 262.42v18.78M2218.27 262.43v-.5" stroke="#3a414a" fill="none"/><path d="M2218.77 281.7h-1v-.5h1z" stroke="#3a414a" stroke-width=".05" fill="#3a414a"/><path d="M1612.98 383h40.32v40.3h-40.32z" stroke="#3a414a" fill="#f2f3f5"/><use xlink:href="#i" transform="matrix(1,0,0,1,1624.9796180650887,394.99212598425197) translate(2.3271604938271606 17.77777777777778)"/><path d="M1652.9 383h40.33v40.3h-40.32z" stroke="#3a414a" fill="#f2f3f5"/><use xlink:href="#i" transform="matrix(1,0,0,1,1664.9133858267717,394.99212598425197) translate(2.3271604938271606 17.77777777777778)"/><path d="M1693.23 383h40.3v40.3h-40.3z" stroke="#3a414a" fill="#b8f5ed"/><use xlink:href="#j" transform="matrix(1,0,0,1,1705.2283464566929,394.99212598425197) translate(2.3271604938271606 17.77777777777778)"/><path d="M1733.16 383h40.32v40.3h-40.32z" stroke="#3a414a" fill="#f2f3f5"/><use xlink:href="#i" transform="matrix(1,0,0,1,1745.1621142183758,394.99212598425197) translate(2.3271604938271606 17.77777777777778)"/><path d="M1773.48 383h40.3v40.3h-40.3z" stroke="#3a414a" fill="#c3f7c8"/><use xlink:href="#j" transform="matrix(1,0,0,1,1785.477074848297,394.99212598425197) translate(2.3271604938271606 17.77777777777778)"/><path d="M1813.4 383h40.33v40.3h-40.32z" stroke="#3a414a" fill="#f2f3f5"/><use xlink:href="#i" transform="matrix(1,0,0,1,1825.41084260998,394.99212598425197) translate(2.3271604938271606 17.77777777777778)"/><path d="M1853.73 383h40.3v40.3h-40.3z" stroke="#3a414a" fill="#f2f3f5"/><use xlink:href="#i" transform="matrix(1,0,0,1,1865.725803239901,394.99212598425197) translate(2.3271604938271606 17.77777777777778)"/><path d="M1893.66 383h40.3v40.3h-40.3z" stroke="#3a414a" fill="#f2f3f5"/><use xlink:href="#i" transform="matrix(1,0,0,1,1905.659571001584,394.99212598425197) translate(2.3271604938271606 17.77777777777778)"/><path d="M1933.97 383h40.32v40.3h-40.33z" stroke="#3a414a" fill="#fff7a1"/><use xlink:href="#j" transform="matrix(1,0,0,1,1945.9745316315052,394.99212598425197) translate(2.3271604938271606 17.77777777777778)"/><path d="M1973.9 383h40.32v40.3h-40.3z" stroke="#3a414a" fill="#f2f3f5"/><use xlink:href="#i" transform="matrix(1,0,0,1,1985.9082993931881,394.99212598425197) translate(2.3271604938271606 17.77777777777778)"/><path d="M2014.22 383h40.32v40.3h-40.32z" stroke="#3a414a" fill="#f2f3f5"/><use xlink:href="#i" transform="matrix(1,0,0,1,2026.2232600231093,394.99212598425197) translate(2.3271604938271606 17.77777777777778)"/><path d="M2054.16 383h40.3v40.3h-40.3z" stroke="#3a414a" fill="#f2f3f5"/><use xlink:href="#i" transform="matrix(1,0,0,1,2066.1570277847923,394.99212598425197) translate(2.3271604938271606 17.77777777777778)"/><path d="M2094.47 383h40.32v40.3h-40.33z" stroke="#3a414a" fill="#f2f3f5"/><use xlink:href="#i" transform="matrix(1,0,0,1,2106.4719884147135,394.99212598425197) translate(2.3271604938271606 17.77777777777778)"/><path d="M2134.4 383h40.32v40.3h-40.3z" stroke="#3a414a" fill="#f2f3f5"/><use xlink:href="#i" transform="matrix(1,0,0,1,2146.4057561763966,394.99212598425197) translate(2.3271604938271606 17.77777777777778)"/><path d="M2174.72 383h40.32v40.3h-40.32z" stroke="#3a414a" fill="#f2f3f5"/><use xlink:href="#i" transform="matrix(1,0,0,1,2186.720716806318,394.99212598425197) translate(2.3271604938271606 17.77777777777778)"/><path d="M2214.65 383h40.32v40.3h-40.32z" stroke="#3a414a" fill="#f2f3f5"/><use xlink:href="#i" transform="matrix(1,0,0,1,2226.654484568001,394.99212598425197) translate(2.3271604938271606 17.77777777777778)"/><defs><path fill="#3a414a" d="M63-220v92h138v28H63V0H30v-248h175v28H63" id="k"/><path fill="#3a414a" d="M114-163C36-179 61-72 57 0H25l-1-190h30c1 12-1 29 2 39 6-27 23-49 58-41v29" id="l"/><path fill="#3a414a" d="M100-194c63 0 86 42 84 106H49c0 40 14 67 53 68 26 1 43-12 49-29l28 8c-11 28-37 45-77 45C44 4 14-33 15-96c1-61 26-98 85-98zm52 81c6-60-76-77-97-28-3 7-6 17-6 28h103" id="m"/><g id="a"><use transform="matrix(0.07407407407407407,0,0,0.07407407407407407,0,0)" xlink:href="#k"/><use transform="matrix(0.07407407407407407,0,0,0.07407407407407407,16.22222222222222,0)" xlink:href="#l"/><use transform="matrix(0.07407407407407407,0,0,0.07407407407407407,25.037037037037038,0)" xlink:href="#m"/><use transform="matrix(0.07407407407407407,0,0,0.07407407407407407,39.85185185185185,0)" xlink:href="#m"/></g><path fill="#3a414a" d="M24 0v-261h32V0H24" id="n"/><path fill="#3a414a" d="M24-231v-30h32v30H24zM24 0v-190h32V0H24" id="o"/><path fill="#3a414a" d="M135-143c-3-34-86-38-87 0 15 53 115 12 119 90S17 21 10-45l28-5c4 36 97 45 98 0-10-56-113-15-118-90-4-57 82-63 122-42 12 7 21 19 24 35" id="p"/><path fill="#3a414a" d="M59-47c-2 24 18 29 38 22v24C64 9 27 4 27-40v-127H5v-23h24l9-43h21v43h35v23H59v120" id="q"/><path fill="#3a414a" d="M33-154v-36h34v36H33zM33 0v-36h34V0H33" id="r"/><g id="b"><use transform="matrix(0.07407407407407407,0,0,0.07407407407407407,0,0)" xlink:href="#n"/><use transform="matrix(0.07407407407407407,0,0,0.07407407407407407,5.851851851851851,0)" xlink:href="#o"/><use transform="matrix(0.07407407407407407,0,0,0.07407407407407407,11.703703703703702,0)" xlink:href="#p"/><use transform="matrix(0.07407407407407407,0,0,0.07407407407407407,25.037037037037035,0)" xlink:href="#q"/><use transform="matrix(0.07407407407407407,0,0,0.07407407407407407,32.44444444444444,0)" xlink:href="#r"/></g><path fill="#3a414a" d="M110-160c48 1 74 30 74 79 0 53-28 85-80 85-65 0-83-55-86-122-5-90 50-162 133-122 14 7 22 21 27 39l-31 6c-5-40-67-38-82-6-9 19-15 44-15 74 11-20 30-34 60-33zm-7 138c34 0 49-23 49-58s-16-56-50-56c-29 0-50 16-49 49 1 36 15 65 50 65" id="s"/><path fill="#3a414a" d="M155-56V0h-30v-56H8v-25l114-167h33v167h35v25h-35zm-30-156c-27 46-58 90-88 131h88v-131" id="t"/><g id="c"><use transform="matrix(0.06172839506172839,0,0,0.06172839506172839,0,0)" xlink:href="#s"/><use transform="matrix(0.06172839506172839,0,0,0.06172839506172839,12.345679012345679,0)" xlink:href="#t"/><use transform="matrix(0.06172839506172839,0,0,0.06172839506172839,24.691358024691358,0)" xlink:href="#r"/></g><path fill="#3a414a" d="M126-127c33 6 58 20 58 59 0 88-139 92-164 29-3-8-5-16-6-25l32-3c6 27 21 44 54 44 32 0 52-15 52-46 0-38-36-46-79-43v-28c39 1 72-4 72-42 0-27-17-43-46-43-28 0-47 15-49 41l-32-3c6-42 35-63 81-64 48-1 79 21 79 65 0 36-21 52-52 59" id="u"/><path fill="#3a414a" d="M101-251c82-7 93 87 43 132L82-64C71-53 59-42 53-27h129V0H18c2-99 128-94 128-182 0-28-16-43-45-43s-46 15-49 41l-32-3c6-41 34-60 81-64" id="v"/><g id="d"><use transform="matrix(0.06172839506172839,0,0,0.06172839506172839,0,0)" xlink:href="#u"/><use transform="matrix(0.06172839506172839,0,0,0.06172839506172839,12.345679012345679,0)" xlink:href="#v"/><use transform="matrix(0.06172839506172839,0,0,0.06172839506172839,24.691358024691358,0)" xlink:href="#r"/></g><path fill="#3a414a" d="M27 0v-27h64v-190l-56 39v-29l58-41h29v221h61V0H27" id="w"/><g id="e"><use transform="matrix(0.06172839506172839,0,0,0.06172839506172839,0,0)" xlink:href="#w"/><use transform="matrix(0.06172839506172839,0,0,0.06172839506172839,12.345679012345679,0)" xlink:href="#s"/><use transform="matrix(0.06172839506172839,0,0,0.06172839506172839,24.691358024691358,0)" xlink:href="#r"/></g><path fill="#3a414a" d="M134-131c28 9 52 24 51 62-1 50-34 73-85 73S17-19 16-69c0-36 21-54 49-61-75-25-45-126 34-121 46 3 78 18 79 63 0 33-17 51-44 57zm-34-11c31 1 46-15 46-44 0-28-17-43-47-42-29 0-46 13-45 42 1 28 16 44 46 44zm1 122c35 0 51-18 51-52 0-30-18-46-53-46-33 0-51 17-51 47 0 34 19 51 53 51" id="x"/><g id="f"><use transform="matrix(0.06172839506172839,0,0,0.06172839506172839,0,0)" xlink:href="#w"/><use transform="matrix(0.06172839506172839,0,0,0.06172839506172839,12.345679012345679,0)" xlink:href="#v"/><use transform="matrix(0.06172839506172839,0,0,0.06172839506172839,24.691358024691358,0)" xlink:href="#x"/><use transform="matrix(0.06172839506172839,0,0,0.06172839506172839,37.03703703703704,0)" xlink:href="#r"/></g><path fill="#3a414a" d="M101-251c68 0 85 55 85 127S166 4 100 4C33 4 14-52 14-124c0-73 17-127 87-127zm-1 229c47 0 54-49 54-102s-4-102-53-102c-51 0-55 48-55 102 0 53 5 102 54 102" id="y"/><use transform="matrix(0.06790123456790123,0,0,0.06790123456790123,0,0)" xlink:href="#y" id="g"/><use transform="matrix(0.06790123456790123,0,0,0.06790123456790123,0,0)" xlink:href="#w" id="h"/><use transform="matrix(0.06172839506172839,0,0,0.06172839506172839,0,0)" xlink:href="#y" id="i"/><use transform="matrix(0.06172839506172839,0,0,0.06172839506172839,0,0)" xlink:href="#w" id="j"/></defs></g></svg>