<svg xmlns="http://www.w3.org/2000/svg" xmlns:xlink="http://www.w3.org/1999/xlink" xmlns:lucid="lucid" width="765.74" height="382.03"><g transform="translate(-1612.0984251673824 -584.0669291307549)" lucid:page-tab-id="0_0"><path d="M2257.64 590.57a6 6 0 0 1 6-6h108.2a6 6 0 0 1 6 6v28a6 6 0 0 1-6 6h-108.2a6 6 0 0 1-6-6z" stroke="#000" stroke-opacity="0" fill="#fff" fill-opacity="0"/><use xlink:href="#a" transform="matrix(1,0,0,1,2262.637795275591,589.5669291338583) translate(4.537037037037045 23.208333333333332)"/><use xlink:href="#b" transform="matrix(1,0,0,1,2262.637795275591,589.5669291338583) translate(66.61111111111111 23.208333333333332)"/><path d="M2257.76 670.57a6 6 0 0 1 6-6h48.08a6 6 0 0 1 6 6v28a6 6 0 0 1-6 6h-48.08a6 6 0 0 1-6-6z" stroke="#000" stroke-opacity="0" fill="#fff" fill-opacity="0"/><use xlink:href="#c" transform="matrix(1,0,0,1,2262.7648595650035,669.5669291338583) translate(20.135802469135804 19.65277777777778)"/><path d="M2258.03 712.14a6 6 0 0 1 6-6h48.08a6 6 0 0 1 6 6v28a6 6 0 0 1-6 6h-48.07a6 6 0 0 1-6-6z" stroke="#000" stroke-opacity="0" fill="#fff" fill-opacity="0"/><use xlink:href="#d" transform="matrix(1,0,0,1,2263.0350933787427,711.1417322834644) translate(20.135802469135804 19.65277777777778)"/><path d="M2257.76 752.14a6 6 0 0 1 6-6h48.08a6 6 0 0 1 6 6v28a6 6 0 0 1-6 6h-48.08a6 6 0 0 1-6-6z" stroke="#000" stroke-opacity="0" fill="#fff" fill-opacity="0"/><use xlink:href="#e" transform="matrix(1,0,0,1,2262.7648595650035,751.1417322834644) translate(20.135802469135804 19.65277777777778)"/><path d="M2317.84 680.57a6 6 0 0 1 6-6h8a6 6 0 0 1 6 6v8a6 6 0 0 1-6 6h-8a6 6 0 0 1-6-6z" stroke="#3a414a" fill="#b8f5ed"/><path d="M2317.84 721.35a6 6 0 0 1 6-6h8a6 6 0 0 1 6 6v8a6 6 0 0 1-6 6h-8a6 6 0 0 1-6-6z" stroke="#3a414a" fill="#c3f7c8"/><path d="M2318.1 762.14a6 6 0 0 1 6-6h8a6 6 0 0 1 6 6v8a6 6 0 0 1-6 6h-8a6 6 0 0 1-6-6z" stroke="#3a414a" fill="#fff7a1"/><path d="M2257.76 630.57a6 6 0 0 1 6-6h48.08a6 6 0 0 1 6 6v28a6 6 0 0 1-6 6h-48.08a6 6 0 0 1-6-6z" stroke="#000" stroke-opacity="0" fill="#fff" fill-opacity="0"/><use xlink:href="#f" transform="matrix(1,0,0,1,2262.7648595650035,629.5669291338583) translate(7.79012345679012 19.65277777777778)"/><path d="M1612.72 792.14a6 6 0 0 1 6-6h149.26a6 6 0 0 1 6 6v68a6 6 0 0 1-6 6h-149.26a6 6 0 0 1-6-6z" stroke="#3a414a" fill="#f2f3f5"/><use xlink:href="#g" transform="matrix(1,0,0,1,1624.7254894862629,798.1417322834644) translate(21.46913580246914 33.55555555555556)"/><use xlink:href="#h" transform="matrix(1,0,0,1,1624.7254894862629,798.1417322834644) translate(55.41975308641976 33.55555555555556)"/><path d="M1612.6 892.93a6 6 0 0 1 6-6h68.63a6 6 0 0 1 6 6v66.67a6 6 0 0 1-6 6h-68.63a6 6 0 0 1-6-6z" stroke="#3a414a" fill="#f2f3f5"/><use xlink:href="#i" transform="matrix(1,0,0,1,1624.5984251968503,898.9291338582675) translate(14.919753086419753 19.555555555555557)"/><use xlink:href="#h" transform="matrix(1,0,0,1,1624.5984251968503,898.9291338582675) translate(-2.0555555555555536 48.88888888888889)"/><path d="M1693.98 892.93a6 6 0 0 1 6-6h68a6 6 0 0 1 6 6v66.67a6 6 0 0 1-6 6h-68a6 6 0 0 1-6-6z" stroke="#3a414a" fill="#fff7a1"/><use xlink:href="#i" transform="matrix(1,0,0,1,1705.985332005948,898.9291338582675) translate(14.419753086419753 19.555555555555557)"/><use xlink:href="#h" transform="matrix(1,0,0,1,1705.985332005948,898.9291338582675) translate(-2.5555555555555536 48.88888888888889)"/><path d="M1612.6 691.35a6 6 0 0 1 6-6h310.27a6 6 0 0 1 6 6v68a6 6 0 0 1-6 6H1618.6a6 6 0 0 1-6-6z" stroke="#3a414a" fill="#f2f3f5"/><use xlink:href="#j" transform="matrix(1,0,0,1,1624.5984251968503,697.3543307086613) translate(101.96913580246914 33.55555555555556)"/><use xlink:href="#h" transform="matrix(1,0,0,1,1624.5984251968503,697.3543307086613) translate(135.91975308641975 33.55555555555556)"/><path d="M1612.6 590.57a6 6 0 0 1 6-6h633.04a6 6 0 0 1 6 6v68a6 6 0 0 1-6 6H1618.6a6 6 0 0 1-6-6z" stroke="#3a414a" fill="#f2f3f5"/><use xlink:href="#k" transform="matrix(1,0,0,1,1624.5984251968503,596.5669291338583) translate(256.679012345679 33.55555555555556)"/><use xlink:href="#h" transform="matrix(1,0,0,1,1624.5984251968503,596.5669291338583) translate(304.2098765432098 33.55555555555556)"/><path d="M1653.04 867.14l-.12 18.8" stroke="#3a414a" fill="none"/><path d="M1653.54 867.16h-1v-.52h1zM1653.42 885.92v.5h-1v-.5z" stroke="#3a414a" stroke-width=".05" fill="#3a414a"/><path d="M1733.98 867.14v18.8" stroke="#3a414a" fill="none"/><path d="M1734.48 867.15h-1v-.5h1zM1734.48 886.43h-1v-.5h1z" stroke="#3a414a" stroke-width=".05" fill="#3a414a"/><path d="M1693.36 766.35v18.8" stroke="#3a414a" fill="none"/><path d="M1693.86 766.37h-1v-.52h1zM1693.86 785.64h-1v-.5h1z" stroke="#3a414a" stroke-width=".05" fill="#3a414a"/><path d="M1854.62 766.35v18.8" stroke="#3a414a" fill="none"/><path d="M1855.12 766.37h-1v-.52h1zM1855.12 785.64h-1v-.5h1z" stroke="#3a414a" stroke-width=".05" fill="#3a414a"/><path d="M1774.1 665.57l-.36 18.78" stroke="#3a414a" fill="none"/><path d="M1774.6 665.6l-1-.03v-.5h1zM1774.24 684.35v.5h-1v-.52z" stroke="#3a414a" stroke-width=".05" fill="#3a414a"/><path d="M2096.44 665.57v18.78" stroke="#3a414a" fill="none"/><path d="M2096.94 665.58h-1v-.5h1zM2096.94 684.85h-1v-.5h1z" stroke="#3a414a" stroke-width=".05" fill="#3a414a"/><path d="M1773.98 792.14a6 6 0 0 1 6-6h149.26a6 6 0 0 1 6 6v68a6 6 0 0 1-6 6h-149.26a6 6 0 0 1-6-6z" stroke="#3a414a" fill="#c3f7c8"/><g><use xlink:href="#g" transform="matrix(1,0,0,1,1785.985332005948,798.1417322834644) translate(21.46913580246914 33.55555555555556)"/><use xlink:href="#h" transform="matrix(1,0,0,1,1785.985332005948,798.1417322834644) translate(55.41975308641976 33.55555555555556)"/></g><path d="M1935.24 691.35a6 6 0 0 1 6-6h310.4a6 6 0 0 1 6 6v68a6 6 0 0 1-6 6h-310.4a6 6 0 0 1-6-6z" stroke="#3a414a" fill="#b8f5ed"/><g><use xlink:href="#j" transform="matrix(1,0,0,1,1947.245174525633,697.3543307086613) translate(101.96913580246914 33.55555555555556)"/><use xlink:href="#h" transform="matrix(1,0,0,1,1947.245174525633,697.3543307086613) translate(135.91975308641975 33.55555555555556)"/></g><defs><path fill="#3a414a" d="M63-220v92h138v28H63V0H30v-248h175v28H63" id="l"/><path fill="#3a414a" d="M114-163C36-179 61-72 57 0H25l-1-190h30c1 12-1 29 2 39 6-27 23-49 58-41v29" id="m"/><path fill="#3a414a" d="M100-194c63 0 86 42 84 106H49c0 40 14 67 53 68 26 1 43-12 49-29l28 8c-11 28-37 45-77 45C44 4 14-33 15-96c1-61 26-98 85-98zm52 81c6-60-76-77-97-28-3 7-6 17-6 28h103" id="n"/><g id="a"><use transform="matrix(0.07407407407407407,0,0,0.07407407407407407,0,0)" xlink:href="#l"/><use transform="matrix(0.07407407407407407,0,0,0.07407407407407407,16.22222222222222,0)" xlink:href="#m"/><use transform="matrix(0.07407407407407407,0,0,0.07407407407407407,25.037037037037038,0)" xlink:href="#n"/><use transform="matrix(0.07407407407407407,0,0,0.07407407407407407,39.85185185185185,0)" xlink:href="#n"/></g><path fill="#3a414a" d="M24 0v-261h32V0H24" id="o"/><path fill="#3a414a" d="M24-231v-30h32v30H24zM24 0v-190h32V0H24" id="p"/><path fill="#3a414a" d="M135-143c-3-34-86-38-87 0 15 53 115 12 119 90S17 21 10-45l28-5c4 36 97 45 98 0-10-56-113-15-118-90-4-57 82-63 122-42 12 7 21 19 24 35" id="q"/><path fill="#3a414a" d="M59-47c-2 24 18 29 38 22v24C64 9 27 4 27-40v-127H5v-23h24l9-43h21v43h35v23H59v120" id="r"/><path fill="#3a414a" d="M33-154v-36h34v36H33zM33 0v-36h34V0H33" id="s"/><g id="b"><use transform="matrix(0.07407407407407407,0,0,0.07407407407407407,0,0)" xlink:href="#o"/><use transform="matrix(0.07407407407407407,0,0,0.07407407407407407,5.851851851851851,0)" xlink:href="#p"/><use transform="matrix(0.07407407407407407,0,0,0.07407407407407407,11.703703703703702,0)" xlink:href="#q"/><use transform="matrix(0.07407407407407407,0,0,0.07407407407407407,25.037037037037035,0)" xlink:href="#r"/><use transform="matrix(0.07407407407407407,0,0,0.07407407407407407,32.44444444444444,0)" xlink:href="#s"/></g><path fill="#3a414a" d="M110-160c48 1 74 30 74 79 0 53-28 85-80 85-65 0-83-55-86-122-5-90 50-162 133-122 14 7 22 21 27 39l-31 6c-5-40-67-38-82-6-9 19-15 44-15 74 11-20 30-34 60-33zm-7 138c34 0 49-23 49-58s-16-56-50-56c-29 0-50 16-49 49 1 36 15 65 50 65" id="t"/><path fill="#3a414a" d="M155-56V0h-30v-56H8v-25l114-167h33v167h35v25h-35zm-30-156c-27 46-58 90-88 131h88v-131" id="u"/><g id="c"><use transform="matrix(0.06172839506172839,0,0,0.06172839506172839,0,0)" xlink:href="#t"/><use transform="matrix(0.06172839506172839,0,0,0.06172839506172839,12.345679012345679,0)" xlink:href="#u"/><use transform="matrix(0.06172839506172839,0,0,0.06172839506172839,24.691358024691358,0)" xlink:href="#s"/></g><path fill="#3a414a" d="M126-127c33 6 58 20 58 59 0 88-139 92-164 29-3-8-5-16-6-25l32-3c6 27 21 44 54 44 32 0 52-15 52-46 0-38-36-46-79-43v-28c39 1 72-4 72-42 0-27-17-43-46-43-28 0-47 15-49 41l-32-3c6-42 35-63 81-64 48-1 79 21 79 65 0 36-21 52-52 59" id="v"/><path fill="#3a414a" d="M101-251c82-7 93 87 43 132L82-64C71-53 59-42 53-27h129V0H18c2-99 128-94 128-182 0-28-16-43-45-43s-46 15-49 41l-32-3c6-41 34-60 81-64" id="w"/><g id="d"><use transform="matrix(0.06172839506172839,0,0,0.06172839506172839,0,0)" xlink:href="#v"/><use transform="matrix(0.06172839506172839,0,0,0.06172839506172839,12.345679012345679,0)" xlink:href="#w"/><use transform="matrix(0.06172839506172839,0,0,0.06172839506172839,24.691358024691358,0)" xlink:href="#s"/></g><path fill="#3a414a" d="M27 0v-27h64v-190l-56 39v-29l58-41h29v221h61V0H27" id="x"/><g id="e"><use transform="matrix(0.06172839506172839,0,0,0.06172839506172839,0,0)" xlink:href="#x"/><use transform="matrix(0.06172839506172839,0,0,0.06172839506172839,12.345679012345679,0)" xlink:href="#t"/><use transform="matrix(0.06172839506172839,0,0,0.06172839506172839,24.691358024691358,0)" xlink:href="#s"/></g><path fill="#3a414a" d="M134-131c28 9 52 24 51 62-1 50-34 73-85 73S17-19 16-69c0-36 21-54 49-61-75-25-45-126 34-121 46 3 78 18 79 63 0 33-17 51-44 57zm-34-11c31 1 46-15 46-44 0-28-17-43-47-42-29 0-46 13-45 42 1 28 16 44 46 44zm1 122c35 0 51-18 51-52 0-30-18-46-53-46-33 0-51 17-51 47 0 34 19 51 53 51" id="y"/><g id="f"><use transform="matrix(0.06172839506172839,0,0,0.06172839506172839,0,0)" xlink:href="#x"/><use transform="matrix(0.06172839506172839,0,0,0.06172839506172839,12.345679012345679,0)" xlink:href="#w"/><use transform="matrix(0.06172839506172839,0,0,0.06172839506172839,24.691358024691358,0)" xlink:href="#y"/><use transform="matrix(0.06172839506172839,0,0,0.06172839506172839,37.03703703703704,0)" xlink:href="#s"/></g><g id="g"><use transform="matrix(0.06790123456790123,0,0,0.06790123456790123,0,0)" xlink:href="#v"/><use transform="matrix(0.06790123456790123,0,0,0.06790123456790123,13.580246913580247,0)" xlink:href="#w"/></g><path fill="#3a414a" d="M160-131c35 5 61 23 61 61C221 17 115-2 30 0v-248c76 3 177-17 177 60 0 33-19 50-47 57zm-97-11c50-1 110 9 110-42 0-47-63-36-110-37v79zm0 115c55-2 124 14 124-45 0-56-70-42-124-44v89" id="z"/><path fill="#3a414a" d="M179-190L93 31C79 59 56 82 12 73V49c39 6 53-20 64-50L1-190h34L92-34l54-156h33" id="A"/><g id="h"><use transform="matrix(0.06790123456790123,0,0,0.06790123456790123,0,0)" xlink:href="#z"/><use transform="matrix(0.06790123456790123,0,0,0.06790123456790123,16.296296296296294,0)" xlink:href="#A"/><use transform="matrix(0.06790123456790123,0,0,0.06790123456790123,28.518518518518515,0)" xlink:href="#r"/><use transform="matrix(0.06790123456790123,0,0,0.06790123456790123,35.30864197530864,0)" xlink:href="#n"/><use transform="matrix(0.06790123456790123,0,0,0.06790123456790123,48.888888888888886,0)" xlink:href="#q"/></g><g id="i"><use transform="matrix(0.06790123456790123,0,0,0.06790123456790123,0,0)" xlink:href="#x"/><use transform="matrix(0.06790123456790123,0,0,0.06790123456790123,13.580246913580247,0)" xlink:href="#t"/></g><g id="j"><use transform="matrix(0.06790123456790123,0,0,0.06790123456790123,0,0)" xlink:href="#t"/><use transform="matrix(0.06790123456790123,0,0,0.06790123456790123,13.580246913580247,0)" xlink:href="#u"/></g><g id="k"><use transform="matrix(0.06790123456790123,0,0,0.06790123456790123,0,0)" xlink:href="#x"/><use transform="matrix(0.06790123456790123,0,0,0.06790123456790123,13.580246913580247,0)" xlink:href="#w"/><use transform="matrix(0.06790123456790123,0,0,0.06790123456790123,27.160493827160494,0)" xlink:href="#y"/></g></defs></g></svg>