<svg xmlns="http://www.w3.org/2000/svg" xmlns:xlink="http://www.w3.org/1999/xlink" xmlns:lucid="lucid" width="766.12" height="444.46"><g transform="translate(-2538.9652667955997 20.657480318063943)" lucid:page-tab-id="0_0"><path d="M3184.88-14.16a6 6 0 0 1 6-6h108.2a6 6 0 0 1 6 6v28a6 6 0 0 1-6 6h-108.2a6 6 0 0 1-6-6z" stroke="#000" stroke-opacity="0" fill="#fff" fill-opacity="0"/><use xlink:href="#a" transform="matrix(1,0,0,1,3189.8818897637802,-15.15748031496063) translate(4.537037037037045 23.208333333333332)"/><use xlink:href="#b" transform="matrix(1,0,0,1,3189.8818897637802,-15.15748031496063) translate(66.61111111111111 23.208333333333332)"/><path d="M3185 65.84a6 6 0 0 1 6-6h48.08a6 6 0 0 1 6 6v28a6 6 0 0 1-6 6H3191a6 6 0 0 1-6-6z" stroke="#000" stroke-opacity="0" fill="#fff" fill-opacity="0"/><use xlink:href="#c" transform="matrix(1,0,0,1,3190.0089540531926,64.84251968503938) translate(20.135802469135804 19.65277777777778)"/><path d="M3185.28 107.42a6 6 0 0 1 6-6h48.07a6 6 0 0 1 6 6v28a6 6 0 0 1-6 6h-48.07a6 6 0 0 1-6-6z" stroke="#000" stroke-opacity="0" fill="#fff" fill-opacity="0"/><use xlink:href="#d" transform="matrix(1,0,0,1,3190.2791878669323,106.41732283464555) translate(20.135802469135804 19.65277777777778)"/><path d="M3185 147.42a6 6 0 0 1 6-6h48.08a6 6 0 0 1 6 6v28a6 6 0 0 1-6 6H3191a6 6 0 0 1-6-6z" stroke="#000" stroke-opacity="0" fill="#fff" fill-opacity="0"/><use xlink:href="#e" transform="matrix(1,0,0,1,3190.0089540531926,146.41732283464555) translate(20.135802469135804 19.65277777777778)"/><path d="M3245.08 35.84a6 6 0 0 1 6-6h8a6 6 0 0 1 6 6v8a6 6 0 0 1-6 6h-8a6 6 0 0 1-6-6z" stroke="#3a414a" fill="#f4d9ff"/><path d="M3185 25.84a6 6 0 0 1 6-6h48.08a6 6 0 0 1 6 6v28a6 6 0 0 1-6 6H3191a6 6 0 0 1-6-6z" stroke="#000" stroke-opacity="0" fill="#fff" fill-opacity="0"/><use xlink:href="#f" transform="matrix(1,0,0,1,3190.0089540531926,24.842519685039377) translate(7.79012345679012 19.65277777777778)"/><path d="M2539.97 187.42a6 6 0 0 1 6-6h149.26a6 6 0 0 1 6 6v68a6 6 0 0 1-6 6h-149.26a6 6 0 0 1-6-6z" stroke="#3a414a" fill="#f2f3f5"/><use xlink:href="#g" transform="matrix(1,0,0,1,2551.9695839744527,193.4173228346455) translate(0 33.55555555555556)"/><path d="M2539.84 288.2a6 6 0 0 1 6-6h68.63a6 6 0 0 1 6 6v66.67a6 6 0 0 1-6 6h-68.63a6 6 0 0 1-6-6z" stroke="#3a414a" fill="#f2f3f5"/><use xlink:href="#g" transform="matrix(1,0,0,1,2551.8425196850394,294.20472440944866) translate(0 33.30555555555556)"/><path d="M2621.23 288.2a6 6 0 0 1 6-6h68a6 6 0 0 1 6 6v66.67a6 6 0 0 1-6 6h-68a6 6 0 0 1-6-6z" stroke="#3a414a" fill="#f2f3f5"/><use xlink:href="#g" transform="matrix(1,0,0,1,2633.2294264941374,294.20472440944866) translate(0 33.30555555555556)"/><path d="M2539.84 86.63a6 6 0 0 1 6-6h310.27a6 6 0 0 1 6 6v68a6 6 0 0 1-6 6h-310.26a6 6 0 0 1-6-6z" stroke="#3a414a" fill="#f2f3f5"/><use xlink:href="#g" transform="matrix(1,0,0,1,2551.8425196850403,92.62992125984246) translate(0 33.55555555555556)"/><path d="M2539.47-14.16a6 6 0 0 1 6-6h633.04a6 6 0 0 1 6 6v68a6 6 0 0 1-6 6h-633.03a6 6 0 0 1-6-6z" stroke="#3a414a" fill="#f4d9ff"/><use xlink:href="#h" transform="matrix(1,0,0,1,2551.46526682449,-8.15748031496063) translate(0 33.55555555555556)"/><path d="M2580.28 262.42l-.12 18.78" stroke="#3a414a" fill="none"/><path d="M2580.78 262.43h-1v-.5h1zM2580.66 281.2v.5h-1v-.5z" stroke="#3a414a" stroke-width=".05" fill="#3a414a"/><path d="M2661.23 262.42v18.78" stroke="#3a414a" fill="none"/><path d="M2661.73 262.43h-1v-.5h1zM2661.73 281.7h-1v-.5h1z" stroke="#3a414a" stroke-width=".05" fill="#3a414a"/><path d="M2620.6 161.63v18.8" stroke="#3a414a" fill="none"/><path d="M2621.1 161.64h-1v-.5h1zM2621.1 180.92h-1v-.5h1z" stroke="#3a414a" stroke-width=".05" fill="#3a414a"/><path d="M2781.86 161.63v18.8" stroke="#3a414a" fill="none"/><path d="M2782.36 161.64h-1v-.5h1zM2782.36 180.92h-1v-.5h1z" stroke="#3a414a" stroke-width=".05" fill="#3a414a"/><path d="M2700.98 60.84v18.8" stroke="#3a414a" fill="none"/><path d="M2701.48 60.85h-1v-.5h1zM2701.48 80.13h-1v-.5h1z" stroke="#3a414a" stroke-width=".05" fill="#3a414a"/><path d="M3023.32 60.84l.36 18.8" stroke="#3a414a" fill="none"/><path d="M3023.82 60.85l-1 .02v-.53h1zM3024.2 80.13h-1l-.02-.5 1-.02z" stroke="#3a414a" stroke-width=".05" fill="#3a414a"/><path d="M2701.23 187.42a6 6 0 0 1 6-6h149.26a6 6 0 0 1 6 6v68a6 6 0 0 1-6 6h-149.27a6 6 0 0 1-6-6z" stroke="#3a414a" fill="#f2f3f5"/><use xlink:href="#g" transform="matrix(1,0,0,1,2713.2294264941374,193.4173228346455) translate(0 33.55555555555556)"/><path d="M2862.5 86.63a6 6 0 0 1 6-6h310.38a6 6 0 0 1 6 6v68a6 6 0 0 1-6 6h-310.4a6 6 0 0 1-6-6z" stroke="#3a414a" fill="#f2f3f5"/><use xlink:href="#g" transform="matrix(1,0,0,1,2874.4892690138226,92.62992125984246) translate(0 33.55555555555556)"/><path d="M2701.23 288.2a6 6 0 0 1 6-6h68.63a6 6 0 0 1 6 6v66.67a6 6 0 0 1-6 6h-68.63a6 6 0 0 1-6-6z" stroke="#3a414a" fill="#f2f3f5"/><use xlink:href="#g" transform="matrix(1,0,0,1,2713.229426494138,294.20472440944866) translate(0 33.30555555555556)"/><path d="M2782.62 288.2a6 6 0 0 1 6-6h68a6 6 0 0 1 6 6v66.67a6 6 0 0 1-6 6h-68a6 6 0 0 1-6-6z" stroke="#3a414a" fill="#f2f3f5"/><use xlink:href="#g" transform="matrix(1,0,0,1,2794.6163333032355,294.20472440944866) translate(0 33.30555555555556)"/><path d="M2741.67 262.42l-.12 18.78M2741.67 262.43v-.5" stroke="#3a414a" fill="none"/><path d="M2742.05 281.2v.5h-1v-.5z" stroke="#3a414a" stroke-width=".05" fill="#3a414a"/><path d="M2822.62 262.42v18.78M2822.62 262.43v-.5" stroke="#3a414a" fill="none"/><path d="M2823.12 281.7h-1v-.5h1z" stroke="#3a414a" stroke-width=".05" fill="#3a414a"/><path d="M2862.74 187.42a6 6 0 0 1 6-6H3018a6 6 0 0 1 6 6v68a6 6 0 0 1-6 6h-149.26a6 6 0 0 1-6-6z" stroke="#3a414a" fill="#f2f3f5"/><use xlink:href="#g" transform="matrix(1,0,0,1,2874.7433975926497,193.4173228346455) translate(0 33.55555555555556)"/><path d="M2862.62 288.2a6 6 0 0 1 6-6h68.63a6 6 0 0 1 6 6v66.67a6 6 0 0 1-6 6h-68.63a6 6 0 0 1-6-6z" stroke="#3a414a" fill="#f2f3f5"/><use xlink:href="#g" transform="matrix(1,0,0,1,2874.6163333032364,294.20472440944866) translate(0 33.30555555555556)"/><path d="M2944 288.2a6 6 0 0 1 6-6h68a6 6 0 0 1 6 6v66.67a6 6 0 0 1-6 6h-68a6 6 0 0 1-6-6z" stroke="#3a414a" fill="#f2f3f5"/><use xlink:href="#g" transform="matrix(1,0,0,1,2956.0032401123344,294.20472440944866) translate(0 33.30555555555556)"/><path d="M2903.05 262.42l-.12 18.78" stroke="#3a414a" fill="none"/><path d="M2903.55 262.43h-1v-.5h1zM2903.43 281.2v.5h-1v-.5z" stroke="#3a414a" stroke-width=".05" fill="#3a414a"/><path d="M2984 262.42v18.78" stroke="#3a414a" fill="none"/><path d="M2984.5 262.43h-1v-.5h1zM2984.5 281.7h-1v-.5h1z" stroke="#3a414a" stroke-width=".05" fill="#3a414a"/><path d="M2943.37 161.63v18.8M2943.37 161.64v-.5" stroke="#3a414a" fill="none"/><path d="M2943.87 180.92h-1v-.5h1z" stroke="#3a414a" stroke-width=".05" fill="#3a414a"/><path d="M3104.63 161.63v18.8M3104.63 161.64v-.5" stroke="#3a414a" fill="none"/><path d="M3105.13 180.92h-1v-.5h1z" stroke="#3a414a" stroke-width=".05" fill="#3a414a"/><path d="M3024 187.42a6 6 0 0 1 6-6h149.26a6 6 0 0 1 6 6v68a6 6 0 0 1-6 6H3030a6 6 0 0 1-6-6z" stroke="#3a414a" fill="#f2f3f5"/><use xlink:href="#g" transform="matrix(1,0,0,1,3036.0032401123344,193.4173228346455) translate(0 33.55555555555556)"/><path d="M3024 288.2a6 6 0 0 1 6-6h68.63a6 6 0 0 1 6 6v66.67a6 6 0 0 1-6 6H3030a6 6 0 0 1-6-6z" stroke="#3a414a" fill="#f2f3f5"/><use xlink:href="#g" transform="matrix(1,0,0,1,3036.0032401123344,294.20472440944866) translate(0 33.30555555555556)"/><path d="M3105.4 288.2a6 6 0 0 1 6-6h68a6 6 0 0 1 6 6v66.67a6 6 0 0 1-6 6h-68a6 6 0 0 1-6-6z" stroke="#3a414a" fill="#f2f3f5"/><use xlink:href="#g" transform="matrix(1,0,0,1,3117.3901469214325,294.20472440944866) translate(0 33.30555555555556)"/><path d="M3064.44 262.42l-.12 18.78M3064.44 262.43v-.5" stroke="#3a414a" fill="none"/><path d="M3064.82 281.2v.5h-1v-.5z" stroke="#3a414a" stroke-width=".05" fill="#3a414a"/><path d="M3145.4 262.42v18.78M3145.4 262.43v-.5" stroke="#3a414a" fill="none"/><path d="M3145.9 281.7h-1v-.5h1z" stroke="#3a414a" stroke-width=".05" fill="#3a414a"/><path d="M2539.97 383h40.32l-.02 40.3h-40.3z" stroke="#3a414a" fill="#f4d9ff"/><use xlink:href="#i" transform="matrix(1,0,0,1,2551.9695839744527,394.99212598425197) translate(2.3271604938271606 17.77777777777778)"/><path d="M2579.9 383h40.32v40.3h-40.32z" stroke="#3a414a" fill="#f2f3f5"/><use xlink:href="#j" transform="matrix(1,0,0,1,2591.903351736136,394.99212598425197) translate(2.3271604938271606 17.77777777777778)"/><path d="M2620.22 383h40.3v40.3h-40.3z" stroke="#3a414a" fill="#f2f3f5"/><use xlink:href="#j" transform="matrix(1,0,0,1,2632.218312366057,394.99212598425197) translate(2.3271604938271606 17.77777777777778)"/><path d="M2660.15 383h40.32v40.3h-40.32z" stroke="#3a414a" fill="#f2f3f5"/><use xlink:href="#j" transform="matrix(1,0,0,1,2672.1520801277397,394.99212598425197) translate(2.3271604938271606 17.77777777777778)"/><path d="M2700.47 383h40.3v40.3h-40.3z" stroke="#3a414a" fill="#f2f3f5"/><use xlink:href="#j" transform="matrix(1,0,0,1,2712.467040757661,394.99212598425197) translate(2.3271604938271606 17.77777777777778)"/><path d="M2740.4 383h40.32v40.3h-40.32z" stroke="#3a414a" fill="#f2f3f5"/><use xlink:href="#j" transform="matrix(1,0,0,1,2752.4008085193436,394.99212598425197) translate(2.3271604938271606 17.77777777777778)"/><path d="M2780.72 383h40.3v40.3h-40.3z" stroke="#3a414a" fill="#f2f3f5"/><use xlink:href="#j" transform="matrix(1,0,0,1,2792.715769149265,394.99212598425197) translate(2.3271604938271606 17.77777777777778)"/><path d="M2820.65 383h40.3v40.3h-40.3z" stroke="#3a414a" fill="#f2f3f5"/><use xlink:href="#j" transform="matrix(1,0,0,1,2832.649536910948,394.99212598425197) translate(2.3271604938271606 17.77777777777778)"/><path d="M2860.96 383h40.32v40.3h-40.32z" stroke="#3a414a" fill="#f2f3f5"/><use xlink:href="#j" transform="matrix(1,0,0,1,2872.964497540869,394.99212598425197) translate(2.3271604938271606 17.77777777777778)"/><path d="M2900.9 383h40.3v40.3h-40.3z" stroke="#3a414a" fill="#f2f3f5"/><use xlink:href="#j" transform="matrix(1,0,0,1,2912.8982653025523,394.99212598425197) translate(2.3271604938271606 17.77777777777778)"/><path d="M2941.2 383h40.33v40.3h-40.32z" stroke="#3a414a" fill="#f2f3f5"/><use xlink:href="#j" transform="matrix(1,0,0,1,2953.2132259324735,394.99212598425197) translate(2.3271604938271606 17.77777777777778)"/><path d="M2981.15 383h40.3v40.3h-40.3z" stroke="#3a414a" fill="#f2f3f5"/><use xlink:href="#j" transform="matrix(1,0,0,1,2993.1469936941567,394.99212598425197) translate(2.3271604938271606 17.77777777777778)"/><path d="M3021.46 383h40.32v40.3h-40.32z" stroke="#3a414a" fill="#f2f3f5"/><use xlink:href="#j" transform="matrix(1,0,0,1,3033.461954324078,394.99212598425197) translate(2.3271604938271606 17.77777777777778)"/><path d="M3061.4 383h40.3v40.3h-40.3z" stroke="#3a414a" fill="#f2f3f5"/><use xlink:href="#j" transform="matrix(1,0,0,1,3073.395722085761,394.99212598425197) translate(2.3271604938271606 17.77777777777778)"/><path d="M3101.7 383h40.33v40.3h-40.32z" stroke="#3a414a" fill="#f2f3f5"/><use xlink:href="#j" transform="matrix(1,0,0,1,3113.710682715682,394.99212598425197) translate(2.3271604938271606 17.77777777777778)"/><path d="M3141.64 383h40.32v40.3h-40.32z" stroke="#3a414a" fill="#f2f3f5"/><use xlink:href="#j" transform="matrix(1,0,0,1,3153.6444504773654,394.99212598425197) translate(2.3271604938271606 17.77777777777778)"/><defs><path fill="#3a414a" d="M63-220v92h138v28H63V0H30v-248h175v28H63" id="k"/><path fill="#3a414a" d="M114-163C36-179 61-72 57 0H25l-1-190h30c1 12-1 29 2 39 6-27 23-49 58-41v29" id="l"/><path fill="#3a414a" d="M100-194c63 0 86 42 84 106H49c0 40 14 67 53 68 26 1 43-12 49-29l28 8c-11 28-37 45-77 45C44 4 14-33 15-96c1-61 26-98 85-98zm52 81c6-60-76-77-97-28-3 7-6 17-6 28h103" id="m"/><g id="a"><use transform="matrix(0.07407407407407407,0,0,0.07407407407407407,0,0)" xlink:href="#k"/><use transform="matrix(0.07407407407407407,0,0,0.07407407407407407,16.22222222222222,0)" xlink:href="#l"/><use transform="matrix(0.07407407407407407,0,0,0.07407407407407407,25.037037037037038,0)" xlink:href="#m"/><use transform="matrix(0.07407407407407407,0,0,0.07407407407407407,39.85185185185185,0)" xlink:href="#m"/></g><path fill="#3a414a" d="M24 0v-261h32V0H24" id="n"/><path fill="#3a414a" d="M24-231v-30h32v30H24zM24 0v-190h32V0H24" id="o"/><path fill="#3a414a" d="M135-143c-3-34-86-38-87 0 15 53 115 12 119 90S17 21 10-45l28-5c4 36 97 45 98 0-10-56-113-15-118-90-4-57 82-63 122-42 12 7 21 19 24 35" id="p"/><path fill="#3a414a" d="M59-47c-2 24 18 29 38 22v24C64 9 27 4 27-40v-127H5v-23h24l9-43h21v43h35v23H59v120" id="q"/><path fill="#3a414a" d="M33-154v-36h34v36H33zM33 0v-36h34V0H33" id="r"/><g id="b"><use transform="matrix(0.07407407407407407,0,0,0.07407407407407407,0,0)" xlink:href="#n"/><use transform="matrix(0.07407407407407407,0,0,0.07407407407407407,5.851851851851851,0)" xlink:href="#o"/><use transform="matrix(0.07407407407407407,0,0,0.07407407407407407,11.703703703703702,0)" xlink:href="#p"/><use transform="matrix(0.07407407407407407,0,0,0.07407407407407407,25.037037037037035,0)" xlink:href="#q"/><use transform="matrix(0.07407407407407407,0,0,0.07407407407407407,32.44444444444444,0)" xlink:href="#r"/></g><path fill="#3a414a" d="M110-160c48 1 74 30 74 79 0 53-28 85-80 85-65 0-83-55-86-122-5-90 50-162 133-122 14 7 22 21 27 39l-31 6c-5-40-67-38-82-6-9 19-15 44-15 74 11-20 30-34 60-33zm-7 138c34 0 49-23 49-58s-16-56-50-56c-29 0-50 16-49 49 1 36 15 65 50 65" id="s"/><path fill="#3a414a" d="M155-56V0h-30v-56H8v-25l114-167h33v167h35v25h-35zm-30-156c-27 46-58 90-88 131h88v-131" id="t"/><g id="c"><use transform="matrix(0.06172839506172839,0,0,0.06172839506172839,0,0)" xlink:href="#s"/><use transform="matrix(0.06172839506172839,0,0,0.06172839506172839,12.345679012345679,0)" xlink:href="#t"/><use transform="matrix(0.06172839506172839,0,0,0.06172839506172839,24.691358024691358,0)" xlink:href="#r"/></g><path fill="#3a414a" d="M126-127c33 6 58 20 58 59 0 88-139 92-164 29-3-8-5-16-6-25l32-3c6 27 21 44 54 44 32 0 52-15 52-46 0-38-36-46-79-43v-28c39 1 72-4 72-42 0-27-17-43-46-43-28 0-47 15-49 41l-32-3c6-42 35-63 81-64 48-1 79 21 79 65 0 36-21 52-52 59" id="u"/><path fill="#3a414a" d="M101-251c82-7 93 87 43 132L82-64C71-53 59-42 53-27h129V0H18c2-99 128-94 128-182 0-28-16-43-45-43s-46 15-49 41l-32-3c6-41 34-60 81-64" id="v"/><g id="d"><use transform="matrix(0.06172839506172839,0,0,0.06172839506172839,0,0)" xlink:href="#u"/><use transform="matrix(0.06172839506172839,0,0,0.06172839506172839,12.345679012345679,0)" xlink:href="#v"/><use transform="matrix(0.06172839506172839,0,0,0.06172839506172839,24.691358024691358,0)" xlink:href="#r"/></g><path fill="#3a414a" d="M27 0v-27h64v-190l-56 39v-29l58-41h29v221h61V0H27" id="w"/><g id="e"><use transform="matrix(0.06172839506172839,0,0,0.06172839506172839,0,0)" xlink:href="#w"/><use transform="matrix(0.06172839506172839,0,0,0.06172839506172839,12.345679012345679,0)" xlink:href="#s"/><use transform="matrix(0.06172839506172839,0,0,0.06172839506172839,24.691358024691358,0)" xlink:href="#r"/></g><path fill="#3a414a" d="M134-131c28 9 52 24 51 62-1 50-34 73-85 73S17-19 16-69c0-36 21-54 49-61-75-25-45-126 34-121 46 3 78 18 79 63 0 33-17 51-44 57zm-34-11c31 1 46-15 46-44 0-28-17-43-47-42-29 0-46 13-45 42 1 28 16 44 46 44zm1 122c35 0 51-18 51-52 0-30-18-46-53-46-33 0-51 17-51 47 0 34 19 51 53 51" id="x"/><g id="f"><use transform="matrix(0.06172839506172839,0,0,0.06172839506172839,0,0)" xlink:href="#w"/><use transform="matrix(0.06172839506172839,0,0,0.06172839506172839,12.345679012345679,0)" xlink:href="#v"/><use transform="matrix(0.06172839506172839,0,0,0.06172839506172839,24.691358024691358,0)" xlink:href="#x"/><use transform="matrix(0.06172839506172839,0,0,0.06172839506172839,37.03703703703704,0)" xlink:href="#r"/></g><path fill="#3a414a" d="M101-251c68 0 85 55 85 127S166 4 100 4C33 4 14-52 14-124c0-73 17-127 87-127zm-1 229c47 0 54-49 54-102s-4-102-53-102c-51 0-55 48-55 102 0 53 5 102 54 102" id="y"/><use transform="matrix(0.06790123456790123,0,0,0.06790123456790123,0,0)" xlink:href="#y" id="g"/><use transform="matrix(0.06790123456790123,0,0,0.06790123456790123,0,0)" xlink:href="#w" id="h"/><use transform="matrix(0.06172839506172839,0,0,0.06172839506172839,0,0)" xlink:href="#w" id="i"/><use transform="matrix(0.06172839506172839,0,0,0.06172839506172839,0,0)" xlink:href="#y" id="j"/></defs></g></svg>