<svg xmlns="http://www.w3.org/2000/svg" xmlns:xlink="http://www.w3.org/1999/xlink" xmlns:lucid="lucid" width="646.55" height="382.03"><g transform="translate(-769.4999999705321 81.12992126294583)" lucid:page-tab-id="0_0"><path d="M770.13 126.94a6 6 0 0 1 6-6H925.4a6 6 0 0 1 6 6v68a6 6 0 0 1-6 6H776.12a6 6 0 0 1-6-6z" stroke="#3a414a" fill="#f2f3f5"/><use xlink:href="#a" transform="matrix(1,0,0,1,782.127064289413,132.9448818897636) translate(62.20987654320987 33.55555555555556)"/><path d="M770 227.73a6 6 0 0 1 6-6h68.63a6 6 0 0 1 6 6v66.67a6 6 0 0 1-6 6H776a6 6 0 0 1-6-6z" stroke="#3a414a" fill="#f2f3f5"/><use xlink:href="#b" transform="matrix(1,0,0,1,781.9999999999999,233.7322834645668) translate(21.709876543209877 33.30555555555556)"/><path d="M851.4 227.73a6 6 0 0 1 6-6h68a6 6 0 0 1 6 6v66.67a6 6 0 0 1-6 6h-68a6 6 0 0 1-6-6z" stroke="#3a414a" fill="#f2f3f5"/><use xlink:href="#c" transform="matrix(1,0,0,1,863.3869068090983,233.7322834645668) translate(21.209876543209877 33.30555555555556)"/><path d="M770 26.16a6 6 0 0 1 6-6h310.27a6 6 0 0 1 6 6v68a6 6 0 0 1-6 6H776a6 6 0 0 1-6-6z" stroke="#3a414a" fill="#f2f3f5"/><use xlink:href="#d" transform="matrix(1,0,0,1,782.000000000001,32.157480314960566) translate(142.70987654320987 33.55555555555556)"/><path d="M770-74.63a6 6 0 0 1 6-6h633.04a6 6 0 0 1 6 6v68a6 6 0 0 1-6 6H776a6 6 0 0 1-6-6z" stroke="#3a414a" fill="#f2f3f5"/><use xlink:href="#e" transform="matrix(1,0,0,1,782.0000000000005,-68.62992125984252) translate(304.2098765432099 33.55555555555556)"/><path d="M810.44 201.94l-.12 18.8" stroke="#3a414a" fill="none"/><path d="M810.94 201.96h-1v-.52h1zM810.82 220.72v.5h-1v-.5z" stroke="#3a414a" stroke-width=".05" fill="#3a414a"/><path d="M891.4 201.94v18.8" stroke="#3a414a" fill="none"/><path d="M891.9 201.96h-1v-.52h1zM891.9 221.23h-1v-.5h1z" stroke="#3a414a" stroke-width=".05" fill="#3a414a"/><path d="M850.76 101.16v18.78" stroke="#3a414a" fill="none"/><path d="M851.26 101.17h-1v-.5h1zM851.26 120.44h-1v-.5h1z" stroke="#3a414a" stroke-width=".05" fill="#3a414a"/><path d="M1012.02 101.16v18.78" stroke="#3a414a" fill="none"/><path d="M1012.52 101.17h-1v-.5h1zM1012.52 120.44h-1v-.5h1z" stroke="#3a414a" stroke-width=".05" fill="#3a414a"/><path d="M931.5.37l-.36 18.8" stroke="#3a414a" fill="none"/><path d="M932 .4l-1-.03v-.5h1zM931.64 19.15v.5h-1v-.5z" stroke="#3a414a" stroke-width=".05" fill="#3a414a"/><path d="M1253.84.37v18.8" stroke="#3a414a" fill="none"/><path d="M1254.34.38h-1v-.5h1zM1254.34 19.66h-1v-.52h1z" stroke="#3a414a" stroke-width=".05" fill="#3a414a"/><path d="M931.4 126.94a6 6 0 0 1 6-6h149.25a6 6 0 0 1 6 6v68a6 6 0 0 1-6 6H937.4a6 6 0 0 1-6-6z" stroke="#3a414a" fill="#f2f3f5"/><use xlink:href="#f" transform="matrix(1,0,0,1,943.3869068090983,132.9448818897636) translate(62.20987654320987 33.55555555555556)"/><path d="M1092.65 26.16a6 6 0 0 1 6-6h310.4a6 6 0 0 1 6 6v68a6 6 0 0 1-6 6h-310.4a6 6 0 0 1-6-6z" stroke="#3a414a" fill="#f2f3f5"/><use xlink:href="#g" transform="matrix(1,0,0,1,1104.6467493287828,32.157480314960566) translate(142.70987654320987 33.55555555555556)"/><path d="M931.4 227.73a6 6 0 0 1 6-6H1006a6 6 0 0 1 6 6v66.67a6 6 0 0 1-6 6H937.4a6 6 0 0 1-6-6z" stroke="#3a414a" fill="#f2f3f5"/><use xlink:href="#h" transform="matrix(1,0,0,1,943.3869068090984,233.7322834645668) translate(21.709876543209877 33.30555555555556)"/><path d="M1012.77 227.73a6 6 0 0 1 6-6h68a6 6 0 0 1 6 6v66.67a6 6 0 0 1-6 6h-68a6 6 0 0 1-6-6z" stroke="#3a414a" fill="#f2f3f5"/><use xlink:href="#i" transform="matrix(1,0,0,1,1024.7738136181965,233.7322834645668) translate(14.419753086419753 33.30555555555556)"/><path d="M971.83 201.94l-.13 18.8M971.83 201.96v-.52" stroke="#3a414a" fill="none"/><path d="M972.2 220.72v.5h-1v-.5z" stroke="#3a414a" stroke-width=".05" fill="#3a414a"/><path d="M1052.77 201.94v18.8M1052.77 201.96v-.52" stroke="#3a414a" fill="none"/><path d="M1053.27 221.23h-1v-.5h1z" stroke="#3a414a" stroke-width=".05" fill="#3a414a"/><path d="M1092.9 126.94a6 6 0 0 1 6-6h149.26a6 6 0 0 1 6 6v68a6 6 0 0 1-6 6H1098.9a6 6 0 0 1-6-6z" stroke="#3a414a" fill="#f2f3f5"/><use xlink:href="#j" transform="matrix(1,0,0,1,1104.90087790761,132.9448818897636) translate(62.20987654320987 33.55555555555556)"/><path d="M1092.77 227.73a6 6 0 0 1 6-6h68.63a6 6 0 0 1 6 6v66.67a6 6 0 0 1-6 6h-68.63a6 6 0 0 1-6-6z" stroke="#3a414a" fill="#f2f3f5"/><use xlink:href="#k" transform="matrix(1,0,0,1,1104.773813618197,233.7322834645668) translate(15.836419753086421 33.30555555555556)"/><path d="M1174.16 227.73a6 6 0 0 1 6-6h68a6 6 0 0 1 6 6v66.67a6 6 0 0 1-6 6h-68a6 6 0 0 1-6-6z" stroke="#3a414a" fill="#f2f3f5"/><use xlink:href="#l" transform="matrix(1,0,0,1,1186.160720427295,233.7322834645668) translate(14.419753086419753 33.30555555555556)"/><path d="M1133.2 201.94l-.1 18.8" stroke="#3a414a" fill="none"/><path d="M1133.7 201.96h-1l.02-.52h1zM1133.6 220.72v.5h-1v-.5z" stroke="#3a414a" stroke-width=".05" fill="#3a414a"/><path d="M1214.16 201.94v18.8" stroke="#3a414a" fill="none"/><path d="M1214.66 201.96h-1v-.52h1zM1214.66 221.23h-1v-.5h1z" stroke="#3a414a" stroke-width=".05" fill="#3a414a"/><path d="M1173.53 101.16v18.78M1173.53 101.17v-.5" stroke="#3a414a" fill="none"/><path d="M1174.03 120.44h-1v-.5h1z" stroke="#3a414a" stroke-width=".05" fill="#3a414a"/><path d="M1334.8 101.16v18.78M1334.8 101.17v-.5" stroke="#3a414a" fill="none"/><path d="M1335.3 120.44h-1v-.5h1z" stroke="#3a414a" stroke-width=".05" fill="#3a414a"/><path d="M1254.16 126.94a6 6 0 0 1 6-6h149.26a6 6 0 0 1 6 6v68a6 6 0 0 1-6 6h-149.26a6 6 0 0 1-6-6z" stroke="#3a414a" fill="#f2f3f5"/><use xlink:href="#m" transform="matrix(1,0,0,1,1266.1607204272948,132.9448818897636) translate(62.20987654320987 33.55555555555556)"/><path d="M1254.16 227.73a6 6 0 0 1 6-6h68.63a6 6 0 0 1 6 6v66.67a6 6 0 0 1-6 6h-68.64a6 6 0 0 1-6-6z" stroke="#3a414a" fill="#f2f3f5"/><use xlink:href="#n" transform="matrix(1,0,0,1,1266.1607204272955,233.7322834645668) translate(14.919753086419753 33.30555555555556)"/><path d="M1335.55 227.73a6 6 0 0 1 6-6h68a6 6 0 0 1 6 6v66.67a6 6 0 0 1-6 6h-68a6 6 0 0 1-6-6z" stroke="#3a414a" fill="#f2f3f5"/><use xlink:href="#o" transform="matrix(1,0,0,1,1347.5476272363935,233.7322834645668) translate(14.419753086419753 33.30555555555556)"/><path d="M1294.6 201.94l-.12 18.8M1294.6 201.96v-.52" stroke="#3a414a" fill="none"/><path d="M1294.98 220.72v.5h-1v-.5z" stroke="#3a414a" stroke-width=".05" fill="#3a414a"/><path d="M1375.55 201.94v18.8M1375.55 201.96v-.52" stroke="#3a414a" fill="none"/><path d="M1376.05 221.23h-1v-.5h1z" stroke="#3a414a" stroke-width=".05" fill="#3a414a"/><defs><path fill="#3a414a" d="M126-127c33 6 58 20 58 59 0 88-139 92-164 29-3-8-5-16-6-25l32-3c6 27 21 44 54 44 32 0 52-15 52-46 0-38-36-46-79-43v-28c39 1 72-4 72-42 0-27-17-43-46-43-28 0-47 15-49 41l-32-3c6-42 35-63 81-64 48-1 79 21 79 65 0 36-21 52-52 59" id="p"/><use transform="matrix(0.06790123456790123,0,0,0.06790123456790123,0,0)" xlink:href="#p" id="a"/><path fill="#3a414a" d="M64 0c3-98 48-159 88-221H18v-27h164v26C143-157 98-101 97 0H64" id="q"/><use transform="matrix(0.06790123456790123,0,0,0.06790123456790123,0,0)" xlink:href="#q" id="b"/><path fill="#3a414a" d="M134-131c28 9 52 24 51 62-1 50-34 73-85 73S17-19 16-69c0-36 21-54 49-61-75-25-45-126 34-121 46 3 78 18 79 63 0 33-17 51-44 57zm-34-11c31 1 46-15 46-44 0-28-17-43-47-42-29 0-46 13-45 42 1 28 16 44 46 44zm1 122c35 0 51-18 51-52 0-30-18-46-53-46-33 0-51 17-51 47 0 34 19 51 53 51" id="r"/><use transform="matrix(0.06790123456790123,0,0,0.06790123456790123,0,0)" xlink:href="#r" id="c"/><path fill="#3a414a" d="M27 0v-27h64v-190l-56 39v-29l58-41h29v221h61V0H27" id="s"/><use transform="matrix(0.06790123456790123,0,0,0.06790123456790123,0,0)" xlink:href="#s" id="d"/><path fill="#3a414a" d="M101-251c68 0 85 55 85 127S166 4 100 4C33 4 14-52 14-124c0-73 17-127 87-127zm-1 229c47 0 54-49 54-102s-4-102-53-102c-51 0-55 48-55 102 0 53 5 102 54 102" id="t"/><use transform="matrix(0.06790123456790123,0,0,0.06790123456790123,0,0)" xlink:href="#t" id="e"/><path fill="#3a414a" d="M155-56V0h-30v-56H8v-25l114-167h33v167h35v25h-35zm-30-156c-27 46-58 90-88 131h88v-131" id="u"/><use transform="matrix(0.06790123456790123,0,0,0.06790123456790123,0,0)" xlink:href="#u" id="f"/><path fill="#3a414a" d="M101-251c82-7 93 87 43 132L82-64C71-53 59-42 53-27h129V0H18c2-99 128-94 128-182 0-28-16-43-45-43s-46 15-49 41l-32-3c6-41 34-60 81-64" id="v"/><use transform="matrix(0.06790123456790123,0,0,0.06790123456790123,0,0)" xlink:href="#v" id="g"/><path fill="#3a414a" d="M99-251c64 0 84 50 84 122C183-37 130 33 47-8c-14-7-20-23-25-40l30-5c6 39 69 39 84 7 9-19 16-44 16-74-10 22-31 35-62 35-49 0-73-33-73-83 0-54 28-83 82-83zm-1 141c31-1 51-18 51-49 0-36-14-67-51-67-34 0-49 23-49 58 0 34 15 58 49 58" id="w"/><use transform="matrix(0.06790123456790123,0,0,0.06790123456790123,0,0)" xlink:href="#w" id="h"/><g id="i"><use transform="matrix(0.06790123456790123,0,0,0.06790123456790123,0,0)" xlink:href="#s"/><use transform="matrix(0.06790123456790123,0,0,0.06790123456790123,13.580246913580247,0)" xlink:href="#t"/></g><path fill="#3a414a" d="M54-142c48-35 137-8 131 61C196 18 31 33 14-55l32-4c7 23 22 37 52 37 35-1 51-22 54-58 4-55-73-65-99-34H22l8-134h141v27H59" id="x"/><use transform="matrix(0.06790123456790123,0,0,0.06790123456790123,0,0)" xlink:href="#x" id="j"/><g id="k"><use transform="matrix(0.06790123456790123,0,0,0.06790123456790123,0,0)" xlink:href="#s"/><use transform="matrix(0.06790123456790123,0,0,0.06790123456790123,11.746913580246913,0)" xlink:href="#s"/></g><g id="l"><use transform="matrix(0.06790123456790123,0,0,0.06790123456790123,0,0)" xlink:href="#s"/><use transform="matrix(0.06790123456790123,0,0,0.06790123456790123,13.580246913580247,0)" xlink:href="#v"/></g><path fill="#3a414a" d="M110-160c48 1 74 30 74 79 0 53-28 85-80 85-65 0-83-55-86-122-5-90 50-162 133-122 14 7 22 21 27 39l-31 6c-5-40-67-38-82-6-9 19-15 44-15 74 11-20 30-34 60-33zm-7 138c34 0 49-23 49-58s-16-56-50-56c-29 0-50 16-49 49 1 36 15 65 50 65" id="y"/><use transform="matrix(0.06790123456790123,0,0,0.06790123456790123,0,0)" xlink:href="#y" id="m"/><g id="n"><use transform="matrix(0.06790123456790123,0,0,0.06790123456790123,0,0)" xlink:href="#s"/><use transform="matrix(0.06790123456790123,0,0,0.06790123456790123,13.580246913580247,0)" xlink:href="#p"/></g><g id="o"><use transform="matrix(0.06790123456790123,0,0,0.06790123456790123,0,0)" xlink:href="#s"/><use transform="matrix(0.06790123456790123,0,0,0.06790123456790123,13.580246913580247,0)" xlink:href="#u"/></g></defs></g></svg>