<svg xmlns="http://www.w3.org/2000/svg" xmlns:xlink="http://www.w3.org/1999/xlink" xmlns:lucid="lucid" width="765.74" height="444.46"><g transform="translate(-3441.659997563799 20.657480318063936)" lucid:page-tab-id="0_0"><path d="M4087.2-14.16a6 6 0 0 1 6-6h108.2a6 6 0 0 1 6 6v28a6 6 0 0 1-6 6h-108.2a6 6 0 0 1-6-6z" stroke="#000" stroke-opacity="0" fill="#fff" fill-opacity="0"/><use xlink:href="#a" transform="matrix(1,0,0,1,4092.1993676720076,-15.157480314960623) translate(4.537037037037045 23.208333333333332)"/><use xlink:href="#b" transform="matrix(1,0,0,1,4092.1993676720076,-15.157480314960623) translate(66.61111111111111 23.208333333333332)"/><path d="M4087.33 65.84a6 6 0 0 1 6-6h48.07a6 6 0 0 1 6 6v28a6 6 0 0 1-6 6h-48.07a6 6 0 0 1-6-6z" stroke="#000" stroke-opacity="0" fill="#fff" fill-opacity="0"/><use xlink:href="#c" transform="matrix(1,0,0,1,4092.32643196142,64.8425196850394) translate(20.135802469135804 19.65277777777778)"/><path d="M4087.6 107.42a6 6 0 0 1 6-6h48.07a6 6 0 0 1 6 6v28a6 6 0 0 1-6 6h-48.07a6 6 0 0 1-6-6z" stroke="#000" stroke-opacity="0" fill="#fff" fill-opacity="0"/><use xlink:href="#d" transform="matrix(1,0,0,1,4092.5966657751596,106.41732283464555) translate(20.135802469135804 19.65277777777778)"/><path d="M4087.33 147.42a6 6 0 0 1 6-6h48.07a6 6 0 0 1 6 6v28a6 6 0 0 1-6 6h-48.07a6 6 0 0 1-6-6z" stroke="#000" stroke-opacity="0" fill="#fff" fill-opacity="0"/><use xlink:href="#e" transform="matrix(1,0,0,1,4092.32643196142,146.41732283464555) translate(20.135802469135804 19.65277777777778)"/><path d="M4147.4 75.84a6 6 0 0 1 6-6h8a6 6 0 0 1 6 6v8a6 6 0 0 1-6 6h-8a6 6 0 0 1-6-6z" stroke="#3a414a" fill="#b8f5ed"/><path d="M4147.4 116.63a6 6 0 0 1 6-6h8a6 6 0 0 1 6 6v8a6 6 0 0 1-6 6h-8a6 6 0 0 1-6-6z" stroke="#3a414a" fill="#c3f7c8"/><path d="M4147.67 157.42a6 6 0 0 1 6-6h8a6 6 0 0 1 6 6v8a6 6 0 0 1-6 6h-8a6 6 0 0 1-6-6z" stroke="#3a414a" fill="#fff7a1"/><path d="M4087.33 25.84a6 6 0 0 1 6-6h48.07a6 6 0 0 1 6 6v28a6 6 0 0 1-6 6h-48.07a6 6 0 0 1-6-6z" stroke="#000" stroke-opacity="0" fill="#fff" fill-opacity="0"/><use xlink:href="#f" transform="matrix(1,0,0,1,4092.32643196142,24.84251968503937) translate(7.79012345679012 19.65277777777778)"/><path d="M3442.3 187.42a6 6 0 0 1 6-6h149.25a6 6 0 0 1 6 6v68a6 6 0 0 1-6 6H3448.3a6 6 0 0 1-6-6z" stroke="#3a414a" fill="#c3f7c8"/><use xlink:href="#g" transform="matrix(1,0,0,1,3454.28706188268,193.41732283464552) translate(0 33.55555555555556)"/><path d="M3442.16 288.2a6 6 0 0 1 6-6h68.63a6 6 0 0 1 6 6v66.67a6 6 0 0 1-6 6h-68.64a6 6 0 0 1-6-6z" stroke="#3a414a" fill="#f2f3f5"/><use xlink:href="#h" transform="matrix(1,0,0,1,3454.159997593267,294.2047244094487) translate(0 33.30555555555556)"/><path d="M3523.55 288.2a6 6 0 0 1 6-6h68a6 6 0 0 1 6 6v66.67a6 6 0 0 1-6 6h-68a6 6 0 0 1-6-6z" stroke="#3a414a" fill="#f2f3f5"/><use xlink:href="#h" transform="matrix(1,0,0,1,3535.546904402365,294.2047244094487) translate(0 33.30555555555556)"/><path d="M3442.16 86.63a6 6 0 0 1 6-6h310.27a6 6 0 0 1 6 6v68a6 6 0 0 1-6 6h-310.27a6 6 0 0 1-6-6z" stroke="#3a414a" fill="#d7faf5"/><use xlink:href="#g" transform="matrix(1,0,0,1,3454.1599975932677,92.62992125984246) translate(0 33.55555555555556)"/><path d="M3442.16-14.16a6 6 0 0 1 6-6h633.04a6 6 0 0 1 6 6v68a6 6 0 0 1-6 6h-633.04a6 6 0 0 1-6-6z" stroke="#3a414a" fill="#f4d9ff"/><use xlink:href="#g" transform="matrix(1,0,0,1,3454.159997593267,-8.157480314960623) translate(0 33.55555555555556)"/><path d="M3482.6 262.42l-.12 18.78" stroke="#3a414a" fill="none"/><path d="M3483.1 262.43h-1v-.5h1zM3482.98 281.2v.5h-1v-.5z" stroke="#3a414a" stroke-width=".05" fill="#3a414a"/><path d="M3563.55 262.42v18.78" stroke="#3a414a" fill="none"/><path d="M3564.05 262.43h-1v-.5h1zM3564.05 281.7h-1v-.5h1z" stroke="#3a414a" stroke-width=".05" fill="#3a414a"/><path d="M3522.92 161.63v18.8" stroke="#3a414a" fill="none"/><path d="M3523.42 161.64h-1v-.5h1zM3523.42 180.92h-1v-.5h1z" stroke="#3a414a" stroke-width=".05" fill="#3a414a"/><path d="M3684.18 161.63v18.8" stroke="#3a414a" fill="none"/><path d="M3684.68 161.64h-1v-.5h1zM3684.68 180.92h-1v-.5h1z" stroke="#3a414a" stroke-width=".05" fill="#3a414a"/><path d="M3603.66 60.84l-.36 18.8" stroke="#3a414a" fill="none"/><path d="M3604.16 60.87l-1-.02v-.5h1zM3603.8 79.63v.5h-1v-.52z" stroke="#3a414a" stroke-width=".05" fill="#3a414a"/><path d="M3926 60.84v18.8" stroke="#3a414a" fill="none"/><path d="M3926.5 60.85h-1v-.5h1zM3926.5 80.13h-1v-.5h1z" stroke="#3a414a" stroke-width=".05" fill="#3a414a"/><path d="M3603.55 187.42a6 6 0 0 1 6-6h149.26a6 6 0 0 1 6 6v68a6 6 0 0 1-6 6h-149.25a6 6 0 0 1-6-6z" stroke="#3a414a" fill="#f2f3f5"/><use xlink:href="#i" transform="matrix(1,0,0,1,3615.5469044023657,193.41732283464552) translate(0 33.55555555555556)"/><path d="M3764.8 86.63a6 6 0 0 1 6-6h310.4a6 6 0 0 1 6 6v68a6 6 0 0 1-6 6h-310.4a6 6 0 0 1-6-6z" stroke="#3a414a" fill="#f2f3f5"/><use xlink:href="#i" transform="matrix(1,0,0,1,3776.8067469220496,92.62992125984246) translate(0 33.55555555555556)"/><path d="M3603.55 288.2a6 6 0 0 1 6-6h68.63a6 6 0 0 1 6 6v66.67a6 6 0 0 1-6 6h-68.63a6 6 0 0 1-6-6z" stroke="#3a414a" fill="#f2f3f5"/><use xlink:href="#h" transform="matrix(1,0,0,1,3615.5469044023657,294.2047244094487) translate(0 33.30555555555556)"/><path d="M3684.93 288.2a6 6 0 0 1 6-6h68a6 6 0 0 1 6 6v66.67a6 6 0 0 1-6 6h-68a6 6 0 0 1-6-6z" stroke="#3a414a" fill="#f2f3f5"/><use xlink:href="#h" transform="matrix(1,0,0,1,3696.9338112114638,294.2047244094487) translate(0 33.30555555555556)"/><path d="M3644 262.42l-.14 18.78M3644 262.43v-.5" stroke="#3a414a" fill="none"/><path d="M3644.36 281.2v.5h-1v-.5z" stroke="#3a414a" stroke-width=".05" fill="#3a414a"/><path d="M3724.93 262.42v18.78M3724.93 262.43v-.5" stroke="#3a414a" fill="none"/><path d="M3725.43 281.7h-1v-.5h1z" stroke="#3a414a" stroke-width=".05" fill="#3a414a"/><path d="M3765.06 187.42a6 6 0 0 1 6-6h149.26a6 6 0 0 1 6 6v68a6 6 0 0 1-6 6h-149.26a6 6 0 0 1-6-6z" stroke="#3a414a" fill="#f2f3f5"/><use xlink:href="#i" transform="matrix(1,0,0,1,3777.060875500877,193.41732283464552) translate(0 33.55555555555556)"/><path d="M3764.93 288.2a6 6 0 0 1 6-6h68.63a6 6 0 0 1 6 6v66.67a6 6 0 0 1-6 6h-68.63a6 6 0 0 1-6-6z" stroke="#3a414a" fill="#f2f3f5"/><use xlink:href="#h" transform="matrix(1,0,0,1,3776.9338112114638,294.2047244094487) translate(0 33.30555555555556)"/><path d="M3846.32 288.2a6 6 0 0 1 6-6h68a6 6 0 0 1 6 6v66.67a6 6 0 0 1-6 6h-68a6 6 0 0 1-6-6z" stroke="#3a414a" fill="#f2f3f5"/><use xlink:href="#h" transform="matrix(1,0,0,1,3858.3207180205613,294.2047244094487) translate(0 33.30555555555556)"/><path d="M3805.37 262.42l-.12 18.78" stroke="#3a414a" fill="none"/><path d="M3805.87 262.43h-1v-.5h1zM3805.75 281.2v.5h-1v-.5z" stroke="#3a414a" stroke-width=".05" fill="#3a414a"/><path d="M3886.32 262.42v18.78" stroke="#3a414a" fill="none"/><path d="M3886.82 262.43h-1v-.5h1zM3886.82 281.7h-1v-.5h1z" stroke="#3a414a" stroke-width=".05" fill="#3a414a"/><path d="M3845.7 161.63v18.8M3845.7 161.64v-.5" stroke="#3a414a" fill="none"/><path d="M3846.2 180.92h-1v-.5h1z" stroke="#3a414a" stroke-width=".05" fill="#3a414a"/><path d="M4006.95 161.63v18.8M4006.95 161.64v-.5" stroke="#3a414a" fill="none"/><path d="M4007.45 180.92h-1v-.5h1z" stroke="#3a414a" stroke-width=".05" fill="#3a414a"/><path d="M3926.32 187.42a6 6 0 0 1 6-6h149.26a6 6 0 0 1 6 6v68a6 6 0 0 1-6 6h-149.26a6 6 0 0 1-6-6z" stroke="#3a414a" fill="#f2f3f5"/><use xlink:href="#i" transform="matrix(1,0,0,1,3938.320718020562,193.41732283464552) translate(0 33.55555555555556)"/><path d="M3926.32 288.2a6 6 0 0 1 6-6h68.63a6 6 0 0 1 6 6v66.67a6 6 0 0 1-6 6h-68.63a6 6 0 0 1-6-6z" stroke="#3a414a" fill="#f2f3f5"/><use xlink:href="#h" transform="matrix(1,0,0,1,3938.3207180205627,294.2047244094487) translate(0 33.30555555555556)"/><path d="M4007.7 288.2a6 6 0 0 1 6-6h68a6 6 0 0 1 6 6v66.67a6 6 0 0 1-6 6h-68a6 6 0 0 1-6-6z" stroke="#3a414a" fill="#f2f3f5"/><use xlink:href="#h" transform="matrix(1,0,0,1,4019.7076248296607,294.2047244094487) translate(0 33.30555555555556)"/><path d="M3966.76 262.42l-.12 18.78M3966.76 262.43v-.5" stroke="#3a414a" fill="none"/><path d="M3967.14 281.2v.5h-1v-.5z" stroke="#3a414a" stroke-width=".05" fill="#3a414a"/><path d="M4047.7 262.42v18.78M4047.7 262.43v-.5" stroke="#3a414a" fill="none"/><path d="M4048.2 281.7h-1v-.5h1z" stroke="#3a414a" stroke-width=".05" fill="#3a414a"/><path d="M3442.4 383h40.33v40.3h-40.32z" stroke="#3a414a" fill="#f4d9ff"/><use xlink:href="#j" transform="matrix(1,0,0,1,3454.414126172093,394.99212598425197) translate(2.3271604938271606 17.77777777777778)"/><path d="M3482.35 383h40.3v40.3h-40.3z" stroke="#3a414a" fill="#d7faf5"/><use xlink:href="#j" transform="matrix(1,0,0,1,3494.3478939337756,394.99212598425197) translate(2.3271604938271606 17.77777777777778)"/><path d="M3522.66 383h40.32v40.3h-40.32z" stroke="#3a414a" fill="#f2f3f5"/><use xlink:href="#k" transform="matrix(1,0,0,1,3534.662854563697,394.99212598425197) translate(2.3271604938271606 17.77777777777778)"/><path d="M3562.6 383h40.3v40.3h-40.3z" stroke="#3a414a" fill="#c3f7c8"/><use xlink:href="#j" transform="matrix(1,0,0,1,3574.59662232538,394.99212598425197) translate(2.3271604938271606 17.77777777777778)"/><path d="M3602.9 383h40.33v40.3h-40.32z" stroke="#3a414a" fill="#f2f3f5"/><use xlink:href="#k" transform="matrix(1,0,0,1,3614.911582955301,394.99212598425197) translate(2.3271604938271606 17.77777777777778)"/><path d="M3642.84 383h40.32v40.3h-40.32z" stroke="#3a414a" fill="#f2f3f5"/><use xlink:href="#k" transform="matrix(1,0,0,1,3654.8453507169843,394.99212598425197) translate(2.3271604938271606 17.77777777777778)"/><path d="M3683.16 383h40.32v40.3h-40.32z" stroke="#3a414a" fill="#f2f3f5"/><use xlink:href="#k" transform="matrix(1,0,0,1,3695.1603113469055,394.99212598425197) translate(2.3271604938271606 17.77777777777778)"/><path d="M3723.1 383h40.3v40.3h-40.3z" stroke="#3a414a" fill="#f2f3f5"/><use xlink:href="#k" transform="matrix(1,0,0,1,3735.0940791085886,394.99212598425197) translate(2.3271604938271606 17.77777777777778)"/><defs><path fill="#3a414a" d="M63-220v92h138v28H63V0H30v-248h175v28H63" id="l"/><path fill="#3a414a" d="M114-163C36-179 61-72 57 0H25l-1-190h30c1 12-1 29 2 39 6-27 23-49 58-41v29" id="m"/><path fill="#3a414a" d="M100-194c63 0 86 42 84 106H49c0 40 14 67 53 68 26 1 43-12 49-29l28 8c-11 28-37 45-77 45C44 4 14-33 15-96c1-61 26-98 85-98zm52 81c6-60-76-77-97-28-3 7-6 17-6 28h103" id="n"/><g id="a"><use transform="matrix(0.07407407407407407,0,0,0.07407407407407407,0,0)" xlink:href="#l"/><use transform="matrix(0.07407407407407407,0,0,0.07407407407407407,16.22222222222222,0)" xlink:href="#m"/><use transform="matrix(0.07407407407407407,0,0,0.07407407407407407,25.037037037037038,0)" xlink:href="#n"/><use transform="matrix(0.07407407407407407,0,0,0.07407407407407407,39.85185185185185,0)" xlink:href="#n"/></g><path fill="#3a414a" d="M24 0v-261h32V0H24" id="o"/><path fill="#3a414a" d="M24-231v-30h32v30H24zM24 0v-190h32V0H24" id="p"/><path fill="#3a414a" d="M135-143c-3-34-86-38-87 0 15 53 115 12 119 90S17 21 10-45l28-5c4 36 97 45 98 0-10-56-113-15-118-90-4-57 82-63 122-42 12 7 21 19 24 35" id="q"/><path fill="#3a414a" d="M59-47c-2 24 18 29 38 22v24C64 9 27 4 27-40v-127H5v-23h24l9-43h21v43h35v23H59v120" id="r"/><path fill="#3a414a" d="M33-154v-36h34v36H33zM33 0v-36h34V0H33" id="s"/><g id="b"><use transform="matrix(0.07407407407407407,0,0,0.07407407407407407,0,0)" xlink:href="#o"/><use transform="matrix(0.07407407407407407,0,0,0.07407407407407407,5.851851851851851,0)" xlink:href="#p"/><use transform="matrix(0.07407407407407407,0,0,0.07407407407407407,11.703703703703702,0)" xlink:href="#q"/><use transform="matrix(0.07407407407407407,0,0,0.07407407407407407,25.037037037037035,0)" xlink:href="#r"/><use transform="matrix(0.07407407407407407,0,0,0.07407407407407407,32.44444444444444,0)" xlink:href="#s"/></g><path fill="#3a414a" d="M110-160c48 1 74 30 74 79 0 53-28 85-80 85-65 0-83-55-86-122-5-90 50-162 133-122 14 7 22 21 27 39l-31 6c-5-40-67-38-82-6-9 19-15 44-15 74 11-20 30-34 60-33zm-7 138c34 0 49-23 49-58s-16-56-50-56c-29 0-50 16-49 49 1 36 15 65 50 65" id="t"/><path fill="#3a414a" d="M155-56V0h-30v-56H8v-25l114-167h33v167h35v25h-35zm-30-156c-27 46-58 90-88 131h88v-131" id="u"/><g id="c"><use transform="matrix(0.06172839506172839,0,0,0.06172839506172839,0,0)" xlink:href="#t"/><use transform="matrix(0.06172839506172839,0,0,0.06172839506172839,12.345679012345679,0)" xlink:href="#u"/><use transform="matrix(0.06172839506172839,0,0,0.06172839506172839,24.691358024691358,0)" xlink:href="#s"/></g><path fill="#3a414a" d="M126-127c33 6 58 20 58 59 0 88-139 92-164 29-3-8-5-16-6-25l32-3c6 27 21 44 54 44 32 0 52-15 52-46 0-38-36-46-79-43v-28c39 1 72-4 72-42 0-27-17-43-46-43-28 0-47 15-49 41l-32-3c6-42 35-63 81-64 48-1 79 21 79 65 0 36-21 52-52 59" id="v"/><path fill="#3a414a" d="M101-251c82-7 93 87 43 132L82-64C71-53 59-42 53-27h129V0H18c2-99 128-94 128-182 0-28-16-43-45-43s-46 15-49 41l-32-3c6-41 34-60 81-64" id="w"/><g id="d"><use transform="matrix(0.06172839506172839,0,0,0.06172839506172839,0,0)" xlink:href="#v"/><use transform="matrix(0.06172839506172839,0,0,0.06172839506172839,12.345679012345679,0)" xlink:href="#w"/><use transform="matrix(0.06172839506172839,0,0,0.06172839506172839,24.691358024691358,0)" xlink:href="#s"/></g><path fill="#3a414a" d="M27 0v-27h64v-190l-56 39v-29l58-41h29v221h61V0H27" id="x"/><g id="e"><use transform="matrix(0.06172839506172839,0,0,0.06172839506172839,0,0)" xlink:href="#x"/><use transform="matrix(0.06172839506172839,0,0,0.06172839506172839,12.345679012345679,0)" xlink:href="#t"/><use transform="matrix(0.06172839506172839,0,0,0.06172839506172839,24.691358024691358,0)" xlink:href="#s"/></g><path fill="#3a414a" d="M134-131c28 9 52 24 51 62-1 50-34 73-85 73S17-19 16-69c0-36 21-54 49-61-75-25-45-126 34-121 46 3 78 18 79 63 0 33-17 51-44 57zm-34-11c31 1 46-15 46-44 0-28-17-43-47-42-29 0-46 13-45 42 1 28 16 44 46 44zm1 122c35 0 51-18 51-52 0-30-18-46-53-46-33 0-51 17-51 47 0 34 19 51 53 51" id="y"/><g id="f"><use transform="matrix(0.06172839506172839,0,0,0.06172839506172839,0,0)" xlink:href="#x"/><use transform="matrix(0.06172839506172839,0,0,0.06172839506172839,12.345679012345679,0)" xlink:href="#w"/><use transform="matrix(0.06172839506172839,0,0,0.06172839506172839,24.691358024691358,0)" xlink:href="#y"/><use transform="matrix(0.06172839506172839,0,0,0.06172839506172839,37.03703703703704,0)" xlink:href="#s"/></g><use transform="matrix(0.06790123456790123,0,0,0.06790123456790123,0,0)" xlink:href="#x" id="g"/><path fill="#3a414a" d="M16-82v-28h88v28H16" id="z"/><use transform="matrix(0.06790123456790123,0,0,0.06790123456790123,0,0)" xlink:href="#z" id="h"/><path fill="#3a414a" d="M101-251c68 0 85 55 85 127S166 4 100 4C33 4 14-52 14-124c0-73 17-127 87-127zm-1 229c47 0 54-49 54-102s-4-102-53-102c-51 0-55 48-55 102 0 53 5 102 54 102" id="A"/><use transform="matrix(0.06790123456790123,0,0,0.06790123456790123,0,0)" xlink:href="#A" id="i"/><use transform="matrix(0.06172839506172839,0,0,0.06172839506172839,0,0)" xlink:href="#x" id="j"/><use transform="matrix(0.06172839506172839,0,0,0.06172839506172839,0,0)" xlink:href="#A" id="k"/></defs></g></svg>