<svg xmlns="http://www.w3.org/2000/svg" xmlns:xlink="http://www.w3.org/1999/xlink" xmlns:lucid="lucid" width="1061" height="308"><g transform="translate(-440 -480)" lucid:page-tab-id="9Z27IM1O41yo"><path d="M520 646a6 6 0 0 1 6-6h767.87a6 6 0 0 1 6 6v48a6 6 0 0 1-6 6H526a6 6 0 0 1-6-6z" stroke="#3a414a" fill="#dfe3e8"/><path d="M520.35 680.6l19.8 19.8M520.36 680.6l-.36-.35M540.14 700.4l.36.35M519.85 660.1l39.8 39.8M519.86 660.1l-.36-.35M559.64 699.9l.36.35M521.76 642l58.4 58.4M521.76 642l-.36-.35M580.14 700.4l.36.35M539.85 640.1l59.8 59.8M539.86 640.1l-.36-.35M599.64 699.9l.36.35M559.1 640.1l60.3 60.3M559.1 640.1l-.35-.35M619.4 700.4l.35.35M580.35 640.6l59.8 59.8M580.36 640.6l-.36-.35M640.14 700.4l.36.35M600.35 641.5l58.4 58.4M600.36 641.5l-.36-.35M658.74 699.9l.36.35M618.45 639.6l59.8 59.8M618.46 639.6l-.36-.35M678.24 699.4l.36.35M637.7 639.6l60.3 60.3M637.7 639.6l-.35-.35M698 699.9l.35.35M658.95 640.1l59.8 59.8M658.96 640.1l-.36-.35M718.74 699.9l.36.35M680.35 641.5l58.4 58.4M680.36 641.5l-.36-.35M738.74 699.9l.36.35M698.45 639.6l59.8 59.8M698.46 639.6l-.36-.35M758.24 699.4l.36.35M717.7 639.6l60.3 60.3M717.7 639.6l-.35-.35M778 699.9l.35.35M738.95 640.1l59.8 59.8M738.96 640.1l-.36-.35M798.74 699.9l.36.35M760.35 641.5l58.4 58.4M760.36 641.5l-.36-.35M818.74 699.9l.36.35M778.45 639.6l59.8 59.8M778.46 639.6l-.36-.35M838.24 699.4l.36.35M797.7 639.6l60.3 60.3M797.7 639.6l-.35-.35M858 699.9l.35.35M818.95 640.1l59.8 59.8M818.96 640.1l-.36-.35M878.74 699.9l.36.35M840.3 642l58.38 58.4M840.3 642l-.37-.35M898.67 700.4l.36.35M858.38 640.1l59.8 59.8M858.4 640.1l-.37-.35M918.17 699.9l.36.35M877.63 640.1l60.3 60.3M877.64 640.1l-.36-.35M937.92 700.4l.36.35M898.88 640.6l59.8 59.8M898.9 640.6l-.37-.35M958.67 700.4l.36.35M920.35 642l58.4 58.4M920.36 642l-.36-.35M978.74 700.4l.36.35M938.45 640.1l59.8 59.8M938.46 640.1l-.36-.35M998.24 699.9l.36.35M957.7 640.1l60.3 60.3M957.7 640.1l-.35-.35M1018 700.4l.35.35M978.95 640.6l59.8 59.8M978.96 640.6l-.36-.35M1038.73 700.4l.37.35M1000.35 642l58.4 58.4M1000.36 642l-.36-.35M1058.73 700.4l.37.35M1018.45 640.1l59.8 59.8M1018.46 640.1l-.36-.35M1078.23 699.9l.37.35M1037.7 640.1l60.3 60.3M1037.7 640.1l-.35-.35M1097.98 700.4l.37.35M1058.95 640.6l59.8 59.8M1058.96 640.6l-.36-.35M1118.73 700.4l.37.35M1080.35 641.5l58.4 58.4M1080.36 641.5l-.36-.35M1138.73 699.9l.37.35M1098.45 639.6l59.8 59.8M1098.46 639.6l-.36-.35M1158.23 699.4l.37.35M1117.7 639.6l60.3 60.3M1117.7 639.6l-.35-.35M1177.98 699.9l.37.35M1138.95 640.1l59.8 59.8M1138.96 640.1l-.36-.35M1198.73 699.9l.37.35M1160.35 641.5l58.4 58.4M1160.36 641.5l-.36-.35M1218.73 699.9l.37.35M1178.45 639.6l59.8 59.8M1178.46 639.6l-.36-.35M1238.23 699.4l.37.35M1197.7 639.6l60.3 60.3M1197.7 639.6l-.35-.35M1257.98 699.9l.37.35M1218.95 640.1l59.8 59.8M1218.96 640.1l-.36-.35M1278.73 699.9l.37.35M1240.35 640.1l58.05 58.05M1240.36 640.1l-.36-.35M1298.4 698.14l.36.37M1259.85 640.1l39.8 39.8M1259.86 640.1l-.36-.35M1299.64 679.9l.36.35M1280.7 640.1l19.3 19.33M1280.7 640.1l-.37-.35M1300 659.42l.37.36" stroke="#979ea8" fill="none"/><path d="M540 640h140v60H540zM700 640h140v60H700zM880 640h300v60H880zM1220 640h79.87v60H1220z" stroke="#3a414a" fill="#b8f5ed"/><path d="M500 546a6 6 0 0 1 6-6h48a6 6 0 0 1 6 6v48a6 6 0 0 1-6 6h-48a6 6 0 0 1-6-6z" stroke="#000" stroke-opacity="0" fill="#fff" fill-opacity="0"/><use xlink:href="#a" transform="matrix(1,0,0,1,505,545) translate(12.654320987654321 17.77777777777778)"/><use xlink:href="#b" transform="matrix(1,0,0,1,505,545) translate(-1.5432098765432087 44.44444444444444)"/><path d="M660 546a6 6 0 0 1 6-6h228a6 6 0 0 1 6 6v28a6 6 0 0 1-6 6H666a6 6 0 0 1-6-6z" stroke="#000" stroke-opacity="0" fill="#fff" fill-opacity="0"/><use xlink:href="#c" transform="matrix(1,0,0,1,665,545) translate(108.51851851851852 19.65277777777778)"/><path d="M1200 546a6 6 0 0 1 6-6h228a6 6 0 0 1 6 6v28a6 6 0 0 1-6 6h-228a6 6 0 0 1-6-6z" stroke="#000" stroke-opacity="0" fill="#fff" fill-opacity="0"/><use xlink:href="#d" transform="matrix(1,0,0,1,1205,545) translate(51.111111111111114 19.65277777777778)"/><use xlink:href="#e" transform="matrix(1,0,0,1,1205,545) translate(94.93827160493828 19.65277777777778)"/><use xlink:href="#b" transform="matrix(1,0,0,1,1205,545) translate(125.80246913580247 19.65277777777778)"/><path d="M1200 643a3 3 0 0 1 3-3h93.87a3 3 0 0 1 3 3v54a3 3 0 0 1-3 3H1203a3 3 0 0 1-3-3z" stroke="#3a414a" fill="#b8f5ed"/><path d="M530 600.5v23.12" stroke="#3a414a" fill="none"/><path d="M530.48 600.5h-.96v-.5h.96z" stroke="#3a414a" stroke-width=".05" fill="#3a414a"/><path d="M530 638.38l-4.63-14.26h9.26z" stroke="#3a414a" fill="#3a414a"/><path d="M660 546a6 6 0 0 1 6-6h48a6 6 0 0 1 6 6v48a6 6 0 0 1-6 6h-48a6 6 0 0 1-6-6z" stroke="#000" stroke-opacity="0" fill="#fff" fill-opacity="0"/><use xlink:href="#a" transform="matrix(1,0,0,1,665,545) translate(12.654320987654321 17.77777777777778)"/><use xlink:href="#b" transform="matrix(1,0,0,1,665,545) translate(-1.5432098765432087 44.44444444444444)"/><path d="M690 600.5v23.12" stroke="#3a414a" fill="none"/><path d="M690.48 600.5h-.96v-.5h.96z" stroke="#3a414a" stroke-width=".05" fill="#3a414a"/><path d="M690 638.38l-4.63-14.26h9.26z" stroke="#3a414a" fill="#3a414a"/><path d="M830 546a6 6 0 0 1 6-6h48a6 6 0 0 1 6 6v48a6 6 0 0 1-6 6h-48a6 6 0 0 1-6-6z" stroke="#000" stroke-opacity="0" fill="#fff" fill-opacity="0"/><use xlink:href="#f" transform="matrix(1,0,0,1,835,545) translate(12.654320987654321 17.77777777777778)"/><use xlink:href="#b" transform="matrix(1,0,0,1,835,545) translate(-1.5432098765432087 44.44444444444444)"/><path d="M860 600.5v23.12" stroke="#3a414a" fill="none"/><path d="M860.48 600.5h-.96v-.5h.96z" stroke="#3a414a" stroke-width=".05" fill="#3a414a"/><path d="M860 638.38l-4.63-14.26h9.26z" stroke="#3a414a" fill="#3a414a"/><path d="M1160 546a6 6 0 0 1 6-6h48a6 6 0 0 1 6 6v48a6 6 0 0 1-6 6h-48a6 6 0 0 1-6-6z" stroke="#000" stroke-opacity="0" fill="#fff" fill-opacity="0"/><use xlink:href="#a" transform="matrix(1,0,0,1,1165,545) translate(12.654320987654321 17.77777777777778)"/><use xlink:href="#b" transform="matrix(1,0,0,1,1165,545) translate(-1.5432098765432087 44.44444444444444)"/><path d="M1190 600.5v23.12" stroke="#3a414a" fill="none"/><path d="M1190.47 600.5h-.94v-.5h.94z" stroke="#3a414a" stroke-width=".05" fill="#3a414a"/><path d="M1190 638.38l-4.63-14.26h9.27z" stroke="#3a414a" fill="#3a414a"/><path d="M500 546a6 6 0 0 1 6-6h208a6 6 0 0 1 6 6v28a6 6 0 0 1-6 6H506a6 6 0 0 1-6-6z" stroke="#000" stroke-opacity="0" fill="#fff" fill-opacity="0"/><use xlink:href="#c" transform="matrix(1,0,0,1,505,545) translate(98.51851851851852 19.65277777777778)"/><path d="M840 546a6 6 0 0 1 6-6h368a6 6 0 0 1 6 6v28a6 6 0 0 1-6 6H846a6 6 0 0 1-6-6z" stroke="#000" stroke-opacity="0" fill="#fff" fill-opacity="0"/><use xlink:href="#c" transform="matrix(1,0,0,1,845,545) translate(178.51851851851853 19.65277777777778)"/><path d="M520 739.5v-23.12M520 739.5v.5" stroke="#3a414a" fill="none"/><path d="M520 701.62l4.63 14.26h-9.26z" stroke="#3a414a" fill="#3a414a"/><path d="M1299.6 739.5v-22.62M1299.6 739.5v.5" stroke="#3a414a" fill="none"/><path d="M1299.6 702.12l4.63 14.26h-9.27z" stroke="#3a414a" fill="#3a414a"/><path d="M520.5 720h778.6M520.5 720h-.5M1299.08 720h.52" stroke="#3a414a" fill="none"/><g><use xlink:href="#g" transform="matrix(1,0,0,1,844.7603666237275,724) translate(0 14.222222222222223)"/><use xlink:href="#h" transform="matrix(1,0,0,1,844.7603666237275,724) translate(75.90123456790124 14.222222222222223)"/></g><defs><path fill="#3a414a" d="M27 0v-27h64v-190l-56 39v-29l58-41h29v221h61V0H27" id="i"/><path fill="#3a414a" d="M110-160c48 1 74 30 74 79 0 53-28 85-80 85-65 0-83-55-86-122-5-90 50-162 133-122 14 7 22 21 27 39l-31 6c-5-40-67-38-82-6-9 19-15 44-15 74 11-20 30-34 60-33zm-7 138c34 0 49-23 49-58s-16-56-50-56c-29 0-50 16-49 49 1 36 15 65 50 65" id="j"/><g id="a"><use transform="matrix(0.06172839506172839,0,0,0.06172839506172839,0,0)" xlink:href="#i"/><use transform="matrix(0.06172839506172839,0,0,0.06172839506172839,12.345679012345679,0)" xlink:href="#j"/></g><path fill="#3a414a" d="M115-194c53 0 69 39 70 98 0 66-23 100-70 100C84 3 66-7 56-30L54 0H23l1-261h32v101c10-23 28-34 59-34zm-8 174c40 0 45-34 45-75 0-40-5-75-45-74-42 0-51 32-51 76 0 43 10 73 51 73" id="k"/><path fill="#3a414a" d="M179-190L93 31C79 59 56 82 12 73V49c39 6 53-20 64-50L1-190h34L92-34l54-156h33" id="l"/><path fill="#3a414a" d="M59-47c-2 24 18 29 38 22v24C64 9 27 4 27-40v-127H5v-23h24l9-43h21v43h35v23H59v120" id="m"/><path fill="#3a414a" d="M100-194c63 0 86 42 84 106H49c0 40 14 67 53 68 26 1 43-12 49-29l28 8c-11 28-37 45-77 45C44 4 14-33 15-96c1-61 26-98 85-98zm52 81c6-60-76-77-97-28-3 7-6 17-6 28h103" id="n"/><path fill="#3a414a" d="M135-143c-3-34-86-38-87 0 15 53 115 12 119 90S17 21 10-45l28-5c4 36 97 45 98 0-10-56-113-15-118-90-4-57 82-63 122-42 12 7 21 19 24 35" id="o"/><g id="b"><use transform="matrix(0.06172839506172839,0,0,0.06172839506172839,0,0)" xlink:href="#k"/><use transform="matrix(0.06172839506172839,0,0,0.06172839506172839,12.345679012345679,0)" xlink:href="#l"/><use transform="matrix(0.06172839506172839,0,0,0.06172839506172839,23.45679012345679,0)" xlink:href="#m"/><use transform="matrix(0.06172839506172839,0,0,0.06172839506172839,29.62962962962963,0)" xlink:href="#n"/><use transform="matrix(0.06172839506172839,0,0,0.06172839506172839,41.97530864197531,0)" xlink:href="#o"/></g><path fill="#3a414a" d="M118-107v75H92v-75H18v-26h74v-75h26v75h74v26h-74" id="p"/><use transform="matrix(0.06172839506172839,0,0,0.06172839506172839,0,0)" xlink:href="#p" id="c"/><path fill="#3a414a" d="M18-150v-26h174v26H18zm0 90v-26h174v26H18" id="q"/><use transform="matrix(0.06172839506172839,0,0,0.06172839506172839,0,0)" xlink:href="#q" id="d"/><path fill="#3a414a" d="M134-131c28 9 52 24 51 62-1 50-34 73-85 73S17-19 16-69c0-36 21-54 49-61-75-25-45-126 34-121 46 3 78 18 79 63 0 33-17 51-44 57zm-34-11c31 1 46-15 46-44 0-28-17-43-47-42-29 0-46 13-45 42 1 28 16 44 46 44zm1 122c35 0 51-18 51-52 0-30-18-46-53-46-33 0-51 17-51 47 0 34 19 51 53 51" id="r"/><path fill="#3a414a" d="M101-251c68 0 85 55 85 127S166 4 100 4C33 4 14-52 14-124c0-73 17-127 87-127zm-1 229c47 0 54-49 54-102s-4-102-53-102c-51 0-55 48-55 102 0 53 5 102 54 102" id="s"/><g id="e"><use transform="matrix(0.06172839506172839,0,0,0.06172839506172839,0,0)" xlink:href="#r"/><use transform="matrix(0.06172839506172839,0,0,0.06172839506172839,12.345679012345679,0)" xlink:href="#s"/></g><path fill="#3a414a" d="M126-127c33 6 58 20 58 59 0 88-139 92-164 29-3-8-5-16-6-25l32-3c6 27 21 44 54 44 32 0 52-15 52-46 0-38-36-46-79-43v-28c39 1 72-4 72-42 0-27-17-43-46-43-28 0-47 15-49 41l-32-3c6-42 35-63 81-64 48-1 79 21 79 65 0 36-21 52-52 59" id="t"/><path fill="#3a414a" d="M101-251c82-7 93 87 43 132L82-64C71-53 59-42 53-27h129V0H18c2-99 128-94 128-182 0-28-16-43-45-43s-46 15-49 41l-32-3c6-41 34-60 81-64" id="u"/><g id="f"><use transform="matrix(0.06172839506172839,0,0,0.06172839506172839,0,0)" xlink:href="#t"/><use transform="matrix(0.06172839506172839,0,0,0.06172839506172839,12.345679012345679,0)" xlink:href="#u"/></g><path fill="#333" d="M199 0l-22-63H83L61 0H9l90-248h61L250 0h-51zm-33-102l-36-108c-10 38-24 72-36 108h72" id="v"/><path fill="#333" d="M88-194c31-1 46 15 58 34l-1-101h50l1 261h-48c-2-10 0-23-3-31C134-8 116 4 84 4 32 4 16-41 15-95c0-56 19-97 73-99zm17 164c33 0 40-30 41-66 1-37-9-64-41-64s-38 30-39 65c0 43 13 65 39 65" id="w"/><path fill="#333" d="M135-150c-39-12-60 13-60 57V0H25l-1-190h47c2 13-1 29 3 40 6-28 27-53 61-41v41" id="x"/><path fill="#333" d="M185-48c-13 30-37 53-82 52C43 2 14-33 14-96s30-98 90-98c62 0 83 45 84 108H66c0 31 8 55 39 56 18 0 30-7 34-22zm-45-69c5-46-57-63-70-21-2 6-4 13-4 21h74" id="y"/><path fill="#333" d="M137-138c1-29-70-34-71-4 15 46 118 7 119 86 1 83-164 76-172 9l43-7c4 19 20 25 44 25 33 8 57-30 24-41C81-84 22-81 20-136c-2-80 154-74 161-7" id="z"/><g id="g"><use transform="matrix(0.04938271604938272,0,0,0.04938271604938272,0,0)" xlink:href="#v"/><use transform="matrix(0.04938271604938272,0,0,0.04938271604938272,12.790123456790125,0)" xlink:href="#w"/><use transform="matrix(0.04938271604938272,0,0,0.04938271604938272,23.60493827160494,0)" xlink:href="#w"/><use transform="matrix(0.04938271604938272,0,0,0.04938271604938272,34.41975308641975,0)" xlink:href="#x"/><use transform="matrix(0.04938271604938272,0,0,0.04938271604938272,41.333333333333336,0)" xlink:href="#y"/><use transform="matrix(0.04938271604938272,0,0,0.04938271604938272,51.20987654320988,0)" xlink:href="#z"/><use transform="matrix(0.04938271604938272,0,0,0.04938271604938272,61.086419753086425,0)" xlink:href="#z"/></g><path fill="#333" d="M240-174c0 40-23 61-54 70L253 0h-59l-57-94H76V0H24v-248c93 4 217-23 216 74zM76-134c48-2 112 12 112-38 0-48-66-32-112-35v73" id="A"/><path fill="#333" d="M133-34C117-15 103 5 69 4 32 3 11-16 11-54c-1-60 55-63 116-61 1-26-3-47-28-47-18 1-26 9-28 27l-52-2c7-38 36-58 82-57s74 22 75 68l1 82c-1 14 12 18 25 15v27c-30 8-71 5-69-32zm-48 3c29 0 43-24 42-57-32 0-66-3-65 30 0 17 8 27 23 27" id="B"/><path fill="#333" d="M135-194c87-1 58 113 63 194h-50c-7-57 23-157-34-157-59 0-34 97-39 157H25l-1-190h47c2 12-1 28 3 38 12-26 28-41 61-42" id="C"/><path fill="#333" d="M195-6C206 82 75 100 31 46c-4-6-6-13-8-21l49-6c3 16 16 24 34 25 40 0 42-37 40-79-11 22-30 35-61 35-53 0-70-43-70-97 0-56 18-96 73-97 30 0 46 14 59 34l2-30h47zm-90-29c32 0 41-27 41-63 0-35-9-62-40-62-32 0-39 29-40 63 0 36 9 62 39 62" id="D"/><g id="h"><use transform="matrix(0.04938271604938272,0,0,0.04938271604938272,0,0)" xlink:href="#A"/><use transform="matrix(0.04938271604938272,0,0,0.04938271604938272,12.790123456790125,0)" xlink:href="#B"/><use transform="matrix(0.04938271604938272,0,0,0.04938271604938272,22.66666666666667,0)" xlink:href="#C"/><use transform="matrix(0.04938271604938272,0,0,0.04938271604938272,33.48148148148149,0)" xlink:href="#D"/><use transform="matrix(0.04938271604938272,0,0,0.04938271604938272,44.296296296296305,0)" xlink:href="#y"/></g></defs></g></svg>