<svg xmlns="http://www.w3.org/2000/svg" xmlns:xlink="http://www.w3.org/1999/xlink" xmlns:lucid="lucid" width="816.46" height="444.46"><g transform="translate(-2539.469583944985 585.0669291369616)" lucid:page-tab-id="0_0"><path d="M3185-578.57a6 6 0 0 1 6-6h108.2a6 6 0 0 1 6 6v28a6 6 0 0 1-6 6H3191a6 6 0 0 1-6-6z" stroke="#000" stroke-opacity="0" fill="#fff" fill-opacity="0"/><use xlink:href="#a" transform="matrix(1,0,0,1,3190.0089540531926,-579.5669291338583) translate(4.537037037037045 23.208333333333332)"/><use xlink:href="#b" transform="matrix(1,0,0,1,3190.0089540531926,-579.5669291338583) translate(66.61111111111111 23.208333333333332)"/><path d="M3185.14-498.57a6 6 0 0 1 6-6h48.07a6 6 0 0 1 6 6v28a6 6 0 0 1-6 6h-48.06a6 6 0 0 1-6-6z" stroke="#000" stroke-opacity="0" fill="#fff" fill-opacity="0"/><use xlink:href="#c" transform="matrix(1,0,0,1,3190.136018342606,-499.56692913385825) translate(20.135802469135804 19.65277777777778)"/><path d="M3185.4-457a6 6 0 0 1 6-6h48.08a6 6 0 0 1 6 6v28a6 6 0 0 1-6 6h-48.07a6 6 0 0 1-6-6z" stroke="#000" stroke-opacity="0" fill="#fff" fill-opacity="0"/><use xlink:href="#d" transform="matrix(1,0,0,1,3190.4062521563455,-457.9921259842521) translate(20.135802469135804 19.65277777777778)"/><path d="M3185.14-417a6 6 0 0 1 6-6h48.07a6 6 0 0 1 6 6v28a6 6 0 0 1-6 6h-48.06a6 6 0 0 1-6-6z" stroke="#000" stroke-opacity="0" fill="#fff" fill-opacity="0"/><use xlink:href="#e" transform="matrix(1,0,0,1,3190.136018342606,-417.9921259842521) translate(20.135802469135804 19.65277777777778)"/><path d="M3245.2-488.57a6 6 0 0 1 6-6h8a6 6 0 0 1 6 6v8a6 6 0 0 1-6 6h-8a6 6 0 0 1-6-6z" stroke="#3a414a" fill="#b8f5ed"/><path d="M3245.2-447.78a6 6 0 0 1 6-6h8a6 6 0 0 1 6 6v8a6 6 0 0 1-6 6h-8a6 6 0 0 1-6-6z" stroke="#3a414a" fill="#c3f7c8"/><path d="M3245.48-407a6 6 0 0 1 6-6h8a6 6 0 0 1 6 6v8a6 6 0 0 1-6 6h-8a6 6 0 0 1-6-6z" stroke="#3a414a" fill="#fff7a1"/><path d="M3185.14-538.57a6 6 0 0 1 6-6h48.07a6 6 0 0 1 6 6v28a6 6 0 0 1-6 6h-48.06a6 6 0 0 1-6-6z" stroke="#000" stroke-opacity="0" fill="#fff" fill-opacity="0"/><use xlink:href="#f" transform="matrix(1,0,0,1,3190.136018342606,-539.5669291338583) translate(7.79012345679012 19.65277777777778)"/><path d="M2540.1-377a6 6 0 0 1 6-6h149.26a6 6 0 0 1 6 6v68a6 6 0 0 1-6 6H2546.1a6 6 0 0 1-6-6z" stroke="#3a414a" fill="#f2f3f5"/><use xlink:href="#g" transform="matrix(1,0,0,1,2552.096648263865,-370.9921259842521) translate(0 33.55555555555556)"/><path d="M2539.97-276.2a6 6 0 0 1 6-6h68.63a6 6 0 0 1 6 6v66.66a6 6 0 0 1-6 6h-68.63a6 6 0 0 1-6-6z" stroke="#3a414a" fill="#f2f3f5"/><use xlink:href="#g" transform="matrix(1,0,0,1,2551.9695839744527,-270.20472440944894) translate(0 33.30555555555556)"/><path d="M2621.36-276.2a6 6 0 0 1 6-6h68a6 6 0 0 1 6 6v66.66a6 6 0 0 1-6 6h-68a6 6 0 0 1-6-6z" stroke="#3a414a" fill="#fff7a1"/><use xlink:href="#h" transform="matrix(1,0,0,1,2633.3564907835507,-270.20472440944894) translate(0 33.30555555555556)"/><path d="M2539.97-477.78a6 6 0 0 1 6-6h310.27a6 6 0 0 1 6 6v68a6 6 0 0 1-6 6h-310.27a6 6 0 0 1-6-6z" stroke="#3a414a" fill="#f2f3f5"/><use xlink:href="#g" transform="matrix(1,0,0,1,2551.969583974453,-471.77952755905517) translate(0 33.55555555555556)"/><path d="M2539.97-578.57a6 6 0 0 1 6-6H3179a6 6 0 0 1 6 6v68a6 6 0 0 1-6 6h-633.03a6 6 0 0 1-6-6z" stroke="#3a414a" fill="#f4d9ff"/><use xlink:href="#h" transform="matrix(1,0,0,1,2551.9695839744536,-572.5669291338583) translate(0 33.55555555555556)"/><path d="M2580.4-302l-.1 18.8" stroke="#3a414a" fill="none"/><path d="M2580.9-301.98h-1v-.5h1zM2580.8-283.2l-.02.5h-1v-.52z" stroke="#3a414a" stroke-width=".05" fill="#3a414a"/><path d="M2661.36-302v18.8" stroke="#3a414a" fill="none"/><path d="M2661.86-301.98h-1v-.5h1zM2661.86-282.7h-1v-.52h1z" stroke="#3a414a" stroke-width=".05" fill="#3a414a"/><path d="M2620.73-402.78v18.8" stroke="#3a414a" fill="none"/><path d="M2621.23-402.77h-1v-.5h1zM2621.23-383.5h-1v-.5h1z" stroke="#3a414a" stroke-width=".05" fill="#3a414a"/><path d="M2782-402.78v18.8" stroke="#3a414a" fill="none"/><path d="M2782.5-402.77h-1v-.5h1zM2782.5-383.5h-1v-.5h1z" stroke="#3a414a" stroke-width=".05" fill="#3a414a"/><path d="M2701.47-503.57l-.36 18.8" stroke="#3a414a" fill="none"/><path d="M2701.97-503.55h-1v-.52h1zM2701.6-484.78v.5h-1v-.52z" stroke="#3a414a" stroke-width=".05" fill="#3a414a"/><path d="M3023.8-503.57v18.8" stroke="#3a414a" fill="none"/><path d="M3024.3-503.55h-1v-.52h1zM3024.3-484.28h-1v-.5h1z" stroke="#3a414a" stroke-width=".05" fill="#3a414a"/><path d="M2701.36-377a6 6 0 0 1 6-6h149.26a6 6 0 0 1 6 6v68a6 6 0 0 1-6 6h-149.26a6 6 0 0 1-6-6z" stroke="#3a414a" fill="#c3f7c8"/><use xlink:href="#h" transform="matrix(1,0,0,1,2713.35649078355,-370.9921259842521) translate(0 33.55555555555556)"/><path d="M2862.62-477.78a6 6 0 0 1 6-6h310.4a6 6 0 0 1 6 6v68a6 6 0 0 1-6 6h-310.4a6 6 0 0 1-6-6z" stroke="#3a414a" fill="#b8f5ed"/><use xlink:href="#h" transform="matrix(1,0,0,1,2874.6163333032355,-471.77952755905517) translate(0 33.55555555555556)"/><path d="M2701.36-276.2a6 6 0 0 1 6-6H2776a6 6 0 0 1 6 6v66.66a6 6 0 0 1-6 6h-68.64a6 6 0 0 1-6-6z" stroke="#3a414a" fill="#f2f3f5"/><use xlink:href="#g" transform="matrix(1,0,0,1,2713.356490783551,-270.20472440944894) translate(0 33.30555555555556)"/><path d="M2781.86-276.2a6 6 0 0 1 6-6h68a6 6 0 0 1 6 6v66.66a6 6 0 0 1-6 6h-68a6 6 0 0 1-6-6z" stroke="#3a414a" fill="#fff7a1"/><use xlink:href="#h" transform="matrix(1,0,0,1,2793.8593477539807,-270.20472440944894) translate(0 33.30555555555556)"/><path d="M2741.8-302l-.13 18.8M2741.8-301.98v-.5" stroke="#3a414a" fill="none"/><path d="M2742.18-283.2v.5h-1v-.52z" stroke="#3a414a" stroke-width=".05" fill="#3a414a"/><path d="M2822.72-302l-.84 18.8M2822.72-301.98l.02-.5" stroke="#3a414a" fill="none"/><path d="M2822.38-283.2l-.02.5h-1l.02-.54z" stroke="#3a414a" stroke-width=".05" fill="#3a414a"/><path d="M2862.87-377a6 6 0 0 1 6-6h149.26a6 6 0 0 1 6 6v68a6 6 0 0 1-6 6h-149.26a6 6 0 0 1-6-6z" stroke="#3a414a" fill="#f2f3f5"/><use xlink:href="#g" transform="matrix(1,0,0,1,2874.870461882062,-370.99212598425214) translate(0 33.55555555555556)"/><path d="M2862.74-276.2a6 6 0 0 1 6-6h68.63a6 6 0 0 1 6 6v66.66a6 6 0 0 1-6 6h-68.63a6 6 0 0 1-6-6z" stroke="#3a414a" fill="#f2f3f5"/><use xlink:href="#g" transform="matrix(1,0,0,1,2874.7433975926497,-270.20472440944894) translate(0 33.30555555555556)"/><path d="M2944.13-276.2a6 6 0 0 1 6-6h68a6 6 0 0 1 6 6v66.66a6 6 0 0 1-6 6h-68a6 6 0 0 1-6-6z" stroke="#3a414a" fill="#fff7a1"/><use xlink:href="#h" transform="matrix(1,0,0,1,2956.1303044017477,-270.20472440944894) translate(0 33.30555555555556)"/><path d="M2903.18-302l-.12 18.8" stroke="#3a414a" fill="none"/><path d="M2903.68-301.98h-1v-.5h1zM2903.56-283.2v.5h-1v-.52z" stroke="#3a414a" stroke-width=".05" fill="#3a414a"/><path d="M2984.13-302v18.8" stroke="#3a414a" fill="none"/><path d="M2984.63-301.98h-1v-.5h1zM2984.63-282.7h-1v-.52h1z" stroke="#3a414a" stroke-width=".05" fill="#3a414a"/><path d="M2943.5-402.78v18.8M2943.5-402.77v-.5" stroke="#3a414a" fill="none"/><path d="M2944-383.5h-1v-.5h1z" stroke="#3a414a" stroke-width=".05" fill="#3a414a"/><path d="M3104.76-402.78v18.8M3104.76-402.77v-.5" stroke="#3a414a" fill="none"/><path d="M3105.26-383.5h-1v-.5h1z" stroke="#3a414a" stroke-width=".05" fill="#3a414a"/><path d="M3024.13-377a6 6 0 0 1 6-6h149.26a6 6 0 0 1 6 6v68a6 6 0 0 1-6 6h-149.27a6 6 0 0 1-6-6z" stroke="#3a414a" fill="#c3f7c8"/><use xlink:href="#h" transform="matrix(1,0,0,1,3036.130304401747,-370.99212598425214) translate(0 33.55555555555556)"/><path d="M3024.13-276.2a6 6 0 0 1 6-6h68.63a6 6 0 0 1 6 6v66.66a6 6 0 0 1-6 6h-68.63a6 6 0 0 1-6-6z" stroke="#3a414a" fill="#f2f3f5"/><use xlink:href="#g" transform="matrix(1,0,0,1,3036.130304401748,-270.20472440944894) translate(0 33.30555555555556)"/><path d="M3105.52-276.2a6 6 0 0 1 6-6h68a6 6 0 0 1 6 6v66.66a6 6 0 0 1-6 6h-68a6 6 0 0 1-6-6z" stroke="#3a414a" fill="#fff7a1"/><use xlink:href="#h" transform="matrix(1,0,0,1,3117.5172112108457,-270.20472440944894) translate(0 33.30555555555556)"/><path d="M3064.57-302l-.12 18.8M3064.57-301.98v-.5" stroke="#3a414a" fill="none"/><path d="M3064.95-283.2v.5h-1v-.52z" stroke="#3a414a" stroke-width=".05" fill="#3a414a"/><path d="M3145.52-302v18.8M3145.52-301.98v-.5" stroke="#3a414a" fill="none"/><path d="M3146.02-282.7h-1v-.52h1z" stroke="#3a414a" stroke-width=".05" fill="#3a414a"/><path d="M3275.46-407a6 6 0 0 1 6-6h8a6 6 0 0 1 6 6v8a6 6 0 0 1-6 6h-8a6 6 0 0 1-6-6zM3305.45-407a6 6 0 0 1 6-6h8a6 6 0 0 1 6 6v8a6 6 0 0 1-6 6h-8a6 6 0 0 1-6-6zM3335.43-407a6 6 0 0 1 6-6h8a6 6 0 0 1 6 6v8a6 6 0 0 1-6 6h-8a6 6 0 0 1-6-6z" stroke="#3a414a" fill="#fff7a1"/><path d="M3275.46-447.78a6 6 0 0 1 6-6h8a6 6 0 0 1 6 6v8a6 6 0 0 1-6 6h-8a6 6 0 0 1-6-6z" stroke="#3a414a" fill="#c3f7c8"/><path d="M3245.48-528.57a6 6 0 0 1 6-6h8a6 6 0 0 1 6 6v8a6 6 0 0 1-6 6h-8a6 6 0 0 1-6-6zM2540.1-181.42h40.3v40.32h-40.3z" stroke="#3a414a" fill="#f4d9ff"/><use xlink:href="#i" transform="matrix(1,0,0,1,2552.096648263865,-169.41732283464566) translate(2.3271604938271606 17.77777777777778)"/><path d="M2580.03-181.42h40.3v40.32h-40.3z" stroke="#3a414a" fill="#f2f3f5"/><use xlink:href="#j" transform="matrix(1,0,0,1,2592.030416025548,-169.41732283464566) translate(2.3271604938271606 17.77777777777778)"/><path d="M2620.34-181.42h40.32v40.32h-40.32z" stroke="#3a414a" fill="#b8f5ed"/><use xlink:href="#i" transform="matrix(1,0,0,1,2632.3453766554694,-169.41732283464566) translate(2.3271604938271606 17.77777777777778)"/><path d="M2660.28-181.42h40.3v40.32h-40.3z" stroke="#3a414a" fill="#f2f3f5"/><use xlink:href="#j" transform="matrix(1,0,0,1,2672.279144417152,-169.41732283464566) translate(2.3271604938271606 17.77777777777778)"/><path d="M2700.6-181.42h40.3v40.32h-40.3z" stroke="#3a414a" fill="#c3f7c8"/><use xlink:href="#i" transform="matrix(1,0,0,1,2712.5941050470733,-169.41732283464566) translate(2.3271604938271606 17.77777777777778)"/><path d="M2740.53-181.42h40.3v40.32h-40.3z" stroke="#3a414a" fill="#f2f3f5"/><use xlink:href="#j" transform="matrix(1,0,0,1,2752.527872808756,-169.41732283464566) translate(2.3271604938271606 17.77777777777778)"/><path d="M2780.84-181.42h40.32v40.32h-40.32z" stroke="#3a414a" fill="#c3f7c8"/><use xlink:href="#i" transform="matrix(1,0,0,1,2792.842833438677,-169.41732283464566) translate(2.3271604938271606 17.77777777777778)"/><path d="M2820.78-181.42h40.3v40.32h-40.3z" stroke="#3a414a" fill="#f2f3f5"/><use xlink:href="#j" transform="matrix(1,0,0,1,2832.7766012003603,-169.41732283464566) translate(2.3271604938271606 17.77777777777778)"/><path d="M2861.1-181.42h40.3v40.32h-40.3z" stroke="#3a414a" fill="#fff7a1"/><use xlink:href="#i" transform="matrix(1,0,0,1,2873.0915618302815,-169.41732283464566) translate(2.3271604938271606 17.77777777777778)"/><path d="M2901.03-181.42h40.3v40.32h-40.3z" stroke="#3a414a" fill="#f2f3f5"/><use xlink:href="#j" transform="matrix(1,0,0,1,2913.0253295919647,-169.41732283464566) translate(2.3271604938271606 17.77777777777778)"/><path d="M2941.34-181.42h40.32v40.32h-40.32z" stroke="#3a414a" fill="#fff7a1"/><use xlink:href="#i" transform="matrix(1,0,0,1,2953.340290221886,-169.41732283464566) translate(2.3271604938271606 17.77777777777778)"/><path d="M2981.27-181.42h40.32v40.32h-40.33z" stroke="#3a414a" fill="#f2f3f5"/><use xlink:href="#j" transform="matrix(1,0,0,1,2993.274057983569,-169.41732283464566) translate(2.3271604938271606 17.77777777777778)"/><path d="M3021.6-181.42h40.3v40.32h-40.3z" stroke="#3a414a" fill="#fff7a1"/><use xlink:href="#i" transform="matrix(1,0,0,1,3033.58901861349,-169.41732283464566) translate(2.3271604938271606 17.77777777777778)"/><path d="M3061.52-181.42h40.32v40.32h-40.32z" stroke="#3a414a" fill="#f2f3f5"/><use xlink:href="#j" transform="matrix(1,0,0,1,3073.5227863751734,-169.41732283464566) translate(2.3271604938271606 17.77777777777778)"/><path d="M3101.84-181.42h40.3v40.32h-40.3z" stroke="#3a414a" fill="#fff7a1"/><use xlink:href="#i" transform="matrix(1,0,0,1,3113.8377470050946,-169.41732283464566) translate(2.3271604938271606 17.77777777777778)"/><path d="M3141.77-181.42h40.32v40.32h-40.33z" stroke="#3a414a" fill="#f2f3f5"/><use xlink:href="#j" transform="matrix(1,0,0,1,3153.7715147667777,-169.41732283464566) translate(2.3271604938271606 17.77777777777778)"/><defs><path fill="#3a414a" d="M63-220v92h138v28H63V0H30v-248h175v28H63" id="k"/><path fill="#3a414a" d="M114-163C36-179 61-72 57 0H25l-1-190h30c1 12-1 29 2 39 6-27 23-49 58-41v29" id="l"/><path fill="#3a414a" d="M100-194c63 0 86 42 84 106H49c0 40 14 67 53 68 26 1 43-12 49-29l28 8c-11 28-37 45-77 45C44 4 14-33 15-96c1-61 26-98 85-98zm52 81c6-60-76-77-97-28-3 7-6 17-6 28h103" id="m"/><g id="a"><use transform="matrix(0.07407407407407407,0,0,0.07407407407407407,0,0)" xlink:href="#k"/><use transform="matrix(0.07407407407407407,0,0,0.07407407407407407,16.22222222222222,0)" xlink:href="#l"/><use transform="matrix(0.07407407407407407,0,0,0.07407407407407407,25.037037037037038,0)" xlink:href="#m"/><use transform="matrix(0.07407407407407407,0,0,0.07407407407407407,39.85185185185185,0)" xlink:href="#m"/></g><path fill="#3a414a" d="M24 0v-261h32V0H24" id="n"/><path fill="#3a414a" d="M24-231v-30h32v30H24zM24 0v-190h32V0H24" id="o"/><path fill="#3a414a" d="M135-143c-3-34-86-38-87 0 15 53 115 12 119 90S17 21 10-45l28-5c4 36 97 45 98 0-10-56-113-15-118-90-4-57 82-63 122-42 12 7 21 19 24 35" id="p"/><path fill="#3a414a" d="M59-47c-2 24 18 29 38 22v24C64 9 27 4 27-40v-127H5v-23h24l9-43h21v43h35v23H59v120" id="q"/><path fill="#3a414a" d="M33-154v-36h34v36H33zM33 0v-36h34V0H33" id="r"/><g id="b"><use transform="matrix(0.07407407407407407,0,0,0.07407407407407407,0,0)" xlink:href="#n"/><use transform="matrix(0.07407407407407407,0,0,0.07407407407407407,5.851851851851851,0)" xlink:href="#o"/><use transform="matrix(0.07407407407407407,0,0,0.07407407407407407,11.703703703703702,0)" xlink:href="#p"/><use transform="matrix(0.07407407407407407,0,0,0.07407407407407407,25.037037037037035,0)" xlink:href="#q"/><use transform="matrix(0.07407407407407407,0,0,0.07407407407407407,32.44444444444444,0)" xlink:href="#r"/></g><path fill="#3a414a" d="M110-160c48 1 74 30 74 79 0 53-28 85-80 85-65 0-83-55-86-122-5-90 50-162 133-122 14 7 22 21 27 39l-31 6c-5-40-67-38-82-6-9 19-15 44-15 74 11-20 30-34 60-33zm-7 138c34 0 49-23 49-58s-16-56-50-56c-29 0-50 16-49 49 1 36 15 65 50 65" id="s"/><path fill="#3a414a" d="M155-56V0h-30v-56H8v-25l114-167h33v167h35v25h-35zm-30-156c-27 46-58 90-88 131h88v-131" id="t"/><g id="c"><use transform="matrix(0.06172839506172839,0,0,0.06172839506172839,0,0)" xlink:href="#s"/><use transform="matrix(0.06172839506172839,0,0,0.06172839506172839,12.345679012345679,0)" xlink:href="#t"/><use transform="matrix(0.06172839506172839,0,0,0.06172839506172839,24.691358024691358,0)" xlink:href="#r"/></g><path fill="#3a414a" d="M126-127c33 6 58 20 58 59 0 88-139 92-164 29-3-8-5-16-6-25l32-3c6 27 21 44 54 44 32 0 52-15 52-46 0-38-36-46-79-43v-28c39 1 72-4 72-42 0-27-17-43-46-43-28 0-47 15-49 41l-32-3c6-42 35-63 81-64 48-1 79 21 79 65 0 36-21 52-52 59" id="u"/><path fill="#3a414a" d="M101-251c82-7 93 87 43 132L82-64C71-53 59-42 53-27h129V0H18c2-99 128-94 128-182 0-28-16-43-45-43s-46 15-49 41l-32-3c6-41 34-60 81-64" id="v"/><g id="d"><use transform="matrix(0.06172839506172839,0,0,0.06172839506172839,0,0)" xlink:href="#u"/><use transform="matrix(0.06172839506172839,0,0,0.06172839506172839,12.345679012345679,0)" xlink:href="#v"/><use transform="matrix(0.06172839506172839,0,0,0.06172839506172839,24.691358024691358,0)" xlink:href="#r"/></g><path fill="#3a414a" d="M27 0v-27h64v-190l-56 39v-29l58-41h29v221h61V0H27" id="w"/><g id="e"><use transform="matrix(0.06172839506172839,0,0,0.06172839506172839,0,0)" xlink:href="#w"/><use transform="matrix(0.06172839506172839,0,0,0.06172839506172839,12.345679012345679,0)" xlink:href="#s"/><use transform="matrix(0.06172839506172839,0,0,0.06172839506172839,24.691358024691358,0)" xlink:href="#r"/></g><path fill="#3a414a" d="M134-131c28 9 52 24 51 62-1 50-34 73-85 73S17-19 16-69c0-36 21-54 49-61-75-25-45-126 34-121 46 3 78 18 79 63 0 33-17 51-44 57zm-34-11c31 1 46-15 46-44 0-28-17-43-47-42-29 0-46 13-45 42 1 28 16 44 46 44zm1 122c35 0 51-18 51-52 0-30-18-46-53-46-33 0-51 17-51 47 0 34 19 51 53 51" id="x"/><g id="f"><use transform="matrix(0.06172839506172839,0,0,0.06172839506172839,0,0)" xlink:href="#w"/><use transform="matrix(0.06172839506172839,0,0,0.06172839506172839,12.345679012345679,0)" xlink:href="#v"/><use transform="matrix(0.06172839506172839,0,0,0.06172839506172839,24.691358024691358,0)" xlink:href="#x"/><use transform="matrix(0.06172839506172839,0,0,0.06172839506172839,37.03703703703704,0)" xlink:href="#r"/></g><path fill="#3a414a" d="M101-251c68 0 85 55 85 127S166 4 100 4C33 4 14-52 14-124c0-73 17-127 87-127zm-1 229c47 0 54-49 54-102s-4-102-53-102c-51 0-55 48-55 102 0 53 5 102 54 102" id="y"/><use transform="matrix(0.06790123456790123,0,0,0.06790123456790123,0,0)" xlink:href="#y" id="g"/><use transform="matrix(0.06790123456790123,0,0,0.06790123456790123,0,0)" xlink:href="#w" id="h"/><use transform="matrix(0.06172839506172839,0,0,0.06172839506172839,0,0)" xlink:href="#w" id="i"/><use transform="matrix(0.06172839506172839,0,0,0.06172839506172839,0,0)" xlink:href="#y" id="j"/></defs></g></svg>