<svg xmlns="http://www.w3.org/2000/svg" xmlns:xlink="http://www.w3.org/1999/xlink" xmlns:lucid="lucid" width="724" height="227"><g transform="translate(42 0)" lucid:page-tab-id="0_0"><path d="M620.07 179.5v-26.66M620.07 179.5v.5" stroke="#3a414a" fill="none"/><path d="M620.07 138.07l4.63 14.27h-9.27z" stroke="#3a414a" fill="#3a414a"/><path d="M20 179.5v-26.82M20 179.5v.5" stroke="#3a414a" fill="none"/><path d="M20 137.9l4.64 14.28h-9.28z" stroke="#3a414a" fill="#3a414a"/><g class="lucid-layer" lucid:layer-id="MS27mNVMRH6z" display="block"><path d="M20.14 86a6 6 0 0 1 6-6h588a6 6 0 0 1 6 6v48a6 6 0 0 1-6 6h-588a6 6 0 0 1-6-6z" stroke="#3a414a" fill="#dfe3e8"/><path d="M620.13 179.5v-26.66M620.13 179.5v.5" stroke="#3a414a" fill="none"/><path d="M620.13 138.07l4.64 14.27h-9.27z" stroke="#3a414a" fill="#3a414a"/><path d="M60.13 80h260v60h-260z" stroke="#3a414a" fill="#b8f5ed"/><use xlink:href="#a" transform="matrix(1,0,0,1,65.13470535619985,85) translate(76.85185185185185 30.27777777777778)"/><use xlink:href="#b" transform="matrix(1,0,0,1,65.13470535619985,85) translate(120.06172839506172 30.27777777777778)"/><g opacity=".87"><path d="M320.13 80h120v60h-120z" stroke="#3a414a" fill="#65938c" fill-opacity=".83"/><use xlink:href="#c" transform="matrix(1,0,0,1,325.1347053561999,85) translate(13.024691358024697 30.27777777777778)"/><use xlink:href="#b" transform="matrix(1,0,0,1,325.1347053561999,85) translate(43.88888888888889 30.27777777777778)"/></g><path d="M20.07 179.5v-26.83M20.07 179.5v.5" stroke="#3a414a" fill="none"/><path d="M20.07 137.9l4.63 14.28h-9.27z" stroke="#3a414a" fill="#3a414a"/><path d="M20.64 160h599M20.65 160h-.5M619.62 160h.5" stroke="#3a414a" fill="none"/><use xlink:href="#d" transform="matrix(1,0,0,1,255.0976683191628,164) translate(0 14.222222222222223)"/><use xlink:href="#e" transform="matrix(1,0,0,1,255.0976683191628,164) translate(75.90123456790124 14.222222222222223)"/><path d="M61.54 20.5v42.62M61.54 20.5V20" stroke="#3a414a" fill="none"/><path d="M61.54 77.88L56.9 63.62h9.27z" stroke="#3a414a" fill="#3a414a"/><path d="M440.13 20.5v42.62M440.13 20.5V20" stroke="#3a414a" fill="none"/><path d="M440.13 77.88l-4.63-14.26h9.27z" stroke="#3a414a" fill="#3a414a"/><path d="M321.54 40v26.52M321.54 40v-.5" stroke="#3a414a" fill="none"/><path d="M320.73 80.39l-3.8-14.53 9.26.54z" stroke="#3a414a" fill="#3a414a"/><path d="M62.04 39.5h377.6M62.05 39.5h-.5M439.62 39.5h.5" stroke="#3a414a" fill="none"/><use xlink:href="#f" transform="matrix(1,0,0,1,210.93483792125625,14.166666666666664) translate(0 14.222222222222223)"/><path d="M348.34 60.47h-26.3v-.95h26.3zm91.3 0h-26.3v-.95h26.3z" stroke="#3a414a" stroke-width=".05" fill="#3a414a"/><path d="M322.05 60.47h-.5v-.95h.5zM440.13 60.47h-.5v-.95h.5z" stroke="#3a414a" stroke-width=".05" fill="#3a414a"/><g><use xlink:href="#g" transform="matrix(1,0,0,1,348.3426450776049,49.33233333333362) translate(0 14.222222222222223)"/></g></g><g class="lucid-layer" lucid:layer-id="_T27dNnjpzwU" display="block" stroke="#3a414a" fill="none"><path d="M320.5 120.35l19.28 19.3M320.5 120.36l-.37-.36M339.77 139.64l.37.36M320.5 100.35l39.28 39.3M320.5 100.36l-.37-.36M359.77 139.64l.37.36M320.5 80.35l59.28 59.3M320.5 80.36l-.37-.36M379.77 139.64l.37.36M340.5 80.35l59.28 59.3M340.5 80.36l-.37-.36M399.77 139.64l.37.36M360.5 80.35l59.28 59.3M360.5 80.36l-.37-.36M419.77 139.64l.37.36M380.5 80.35l59.28 59.3M380.5 80.36l-.37-.36M439.77 139.64l.37.36M400.5 80.35l39.28 39.3M400.5 80.36l-.37-.36M439.77 119.64l.37.36M420.5 80.35l19.28 19.3M420.5 80.36l-.37-.36M439.77 99.64l.37.36"/></g><g class="lucid-layer" lucid:layer-id="CK.7i-L~PD10" display="block" stroke="#979ea8" fill="none"><path d="M20.35 120.35l19.3 19.3M20.36 120.36L20 120M39.64 139.64l.36.36M20.35 100.35l39.3 39.3M20.36 100.36L20 100M59.64 139.64l.36.36M20.35 80.35l39.3 39.3M20.36 80.36L20 80M59.64 119.64l.36.36M40.35 80.35l19.3 19.3M40.36 80.36L40 80M59.64 99.64l.36.36M440.35 120.35l19.3 19.3M440.36 120.36L440 120M459.64 139.64l.36.36M440.35 100.35l39.3 39.3M440.36 100.36L440 100M479.64 139.64l.36.36M440.35 80.35l59.3 59.3M440.36 80.36L440 80M499.64 139.64l.36.36M460.35 80.35l59.3 59.3M460.36 80.36L460 80M519.64 139.64l.36.36M480.35 80.35l59.3 59.3M480.36 80.36L480 80M539.64 139.64l.36.36M500.35 80.35l59.3 59.3M500.36 80.36L500 80M559.64 139.64l.36.36M520.35 80.35l59.3 59.3M520.36 80.36L520 80M579.64 139.64l.36.36M540.35 80.35l59.3 59.3M540.36 80.36L540 80M599.64 139.64l.36.36M560.5 80.35l59.28 59.3M560.5 80.36l-.37-.36M619.77 139.64l.37.36M600.35 80.35l19.3 19.3M600.36 80.36L600 80M619.64 99.64l.36.36M580.35 80.35l39.3 39.3M580.36 80.36L580 80M619.64 119.64l.36.36"/></g><defs><path fill="#3a414a" d="M27 0v-27h64v-190l-56 39v-29l58-41h29v221h61V0H27" id="h"/><path fill="#3a414a" d="M101-251c68 0 85 55 85 127S166 4 100 4C33 4 14-52 14-124c0-73 17-127 87-127zm-1 229c47 0 54-49 54-102s-4-102-53-102c-51 0-55 48-55 102 0 53 5 102 54 102" id="i"/><g id="a"><use transform="matrix(0.06172839506172839,0,0,0.06172839506172839,0,0)" xlink:href="#h"/><use transform="matrix(0.06172839506172839,0,0,0.06172839506172839,12.345679012345679,0)" xlink:href="#i"/><use transform="matrix(0.06172839506172839,0,0,0.06172839506172839,24.691358024691358,0)" xlink:href="#i"/></g><path fill="#3a414a" d="M115-194c53 0 69 39 70 98 0 66-23 100-70 100C84 3 66-7 56-30L54 0H23l1-261h32v101c10-23 28-34 59-34zm-8 174c40 0 45-34 45-75 0-40-5-75-45-74-42 0-51 32-51 76 0 43 10 73 51 73" id="j"/><path fill="#3a414a" d="M179-190L93 31C79 59 56 82 12 73V49c39 6 53-20 64-50L1-190h34L92-34l54-156h33" id="k"/><path fill="#3a414a" d="M59-47c-2 24 18 29 38 22v24C64 9 27 4 27-40v-127H5v-23h24l9-43h21v43h35v23H59v120" id="l"/><path fill="#3a414a" d="M100-194c63 0 86 42 84 106H49c0 40 14 67 53 68 26 1 43-12 49-29l28 8c-11 28-37 45-77 45C44 4 14-33 15-96c1-61 26-98 85-98zm52 81c6-60-76-77-97-28-3 7-6 17-6 28h103" id="m"/><path fill="#3a414a" d="M135-143c-3-34-86-38-87 0 15 53 115 12 119 90S17 21 10-45l28-5c4 36 97 45 98 0-10-56-113-15-118-90-4-57 82-63 122-42 12 7 21 19 24 35" id="n"/><g id="b"><use transform="matrix(0.06172839506172839,0,0,0.06172839506172839,0,0)" xlink:href="#j"/><use transform="matrix(0.06172839506172839,0,0,0.06172839506172839,12.345679012345679,0)" xlink:href="#k"/><use transform="matrix(0.06172839506172839,0,0,0.06172839506172839,23.45679012345679,0)" xlink:href="#l"/><use transform="matrix(0.06172839506172839,0,0,0.06172839506172839,29.62962962962963,0)" xlink:href="#m"/><use transform="matrix(0.06172839506172839,0,0,0.06172839506172839,41.97530864197531,0)" xlink:href="#n"/></g><path fill="#3a414a" d="M101-251c82-7 93 87 43 132L82-64C71-53 59-42 53-27h129V0H18c2-99 128-94 128-182 0-28-16-43-45-43s-46 15-49 41l-32-3c6-41 34-60 81-64" id="o"/><path fill="#3a414a" d="M134-131c28 9 52 24 51 62-1 50-34 73-85 73S17-19 16-69c0-36 21-54 49-61-75-25-45-126 34-121 46 3 78 18 79 63 0 33-17 51-44 57zm-34-11c31 1 46-15 46-44 0-28-17-43-47-42-29 0-46 13-45 42 1 28 16 44 46 44zm1 122c35 0 51-18 51-52 0-30-18-46-53-46-33 0-51 17-51 47 0 34 19 51 53 51" id="p"/><g id="c"><use transform="matrix(0.06172839506172839,0,0,0.06172839506172839,0,0)" xlink:href="#o"/><use transform="matrix(0.06172839506172839,0,0,0.06172839506172839,12.345679012345679,0)" xlink:href="#p"/></g><path fill="#333" d="M199 0l-22-63H83L61 0H9l90-248h61L250 0h-51zm-33-102l-36-108c-10 38-24 72-36 108h72" id="q"/><path fill="#333" d="M88-194c31-1 46 15 58 34l-1-101h50l1 261h-48c-2-10 0-23-3-31C134-8 116 4 84 4 32 4 16-41 15-95c0-56 19-97 73-99zm17 164c33 0 40-30 41-66 1-37-9-64-41-64s-38 30-39 65c0 43 13 65 39 65" id="r"/><path fill="#333" d="M135-150c-39-12-60 13-60 57V0H25l-1-190h47c2 13-1 29 3 40 6-28 27-53 61-41v41" id="s"/><path fill="#333" d="M185-48c-13 30-37 53-82 52C43 2 14-33 14-96s30-98 90-98c62 0 83 45 84 108H66c0 31 8 55 39 56 18 0 30-7 34-22zm-45-69c5-46-57-63-70-21-2 6-4 13-4 21h74" id="t"/><path fill="#333" d="M137-138c1-29-70-34-71-4 15 46 118 7 119 86 1 83-164 76-172 9l43-7c4 19 20 25 44 25 33 8 57-30 24-41C81-84 22-81 20-136c-2-80 154-74 161-7" id="u"/><g id="d"><use transform="matrix(0.04938271604938272,0,0,0.04938271604938272,0,0)" xlink:href="#q"/><use transform="matrix(0.04938271604938272,0,0,0.04938271604938272,12.790123456790125,0)" xlink:href="#r"/><use transform="matrix(0.04938271604938272,0,0,0.04938271604938272,23.60493827160494,0)" xlink:href="#r"/><use transform="matrix(0.04938271604938272,0,0,0.04938271604938272,34.41975308641975,0)" xlink:href="#s"/><use transform="matrix(0.04938271604938272,0,0,0.04938271604938272,41.333333333333336,0)" xlink:href="#t"/><use transform="matrix(0.04938271604938272,0,0,0.04938271604938272,51.20987654320988,0)" xlink:href="#u"/><use transform="matrix(0.04938271604938272,0,0,0.04938271604938272,61.086419753086425,0)" xlink:href="#u"/></g><path fill="#333" d="M240-174c0 40-23 61-54 70L253 0h-59l-57-94H76V0H24v-248c93 4 217-23 216 74zM76-134c48-2 112 12 112-38 0-48-66-32-112-35v73" id="v"/><path fill="#333" d="M133-34C117-15 103 5 69 4 32 3 11-16 11-54c-1-60 55-63 116-61 1-26-3-47-28-47-18 1-26 9-28 27l-52-2c7-38 36-58 82-57s74 22 75 68l1 82c-1 14 12 18 25 15v27c-30 8-71 5-69-32zm-48 3c29 0 43-24 42-57-32 0-66-3-65 30 0 17 8 27 23 27" id="w"/><path fill="#333" d="M135-194c87-1 58 113 63 194h-50c-7-57 23-157-34-157-59 0-34 97-39 157H25l-1-190h47c2 12-1 28 3 38 12-26 28-41 61-42" id="x"/><path fill="#333" d="M195-6C206 82 75 100 31 46c-4-6-6-13-8-21l49-6c3 16 16 24 34 25 40 0 42-37 40-79-11 22-30 35-61 35-53 0-70-43-70-97 0-56 18-96 73-97 30 0 46 14 59 34l2-30h47zm-90-29c32 0 41-27 41-63 0-35-9-62-40-62-32 0-39 29-40 63 0 36 9 62 39 62" id="y"/><g id="e"><use transform="matrix(0.04938271604938272,0,0,0.04938271604938272,0,0)" xlink:href="#v"/><use transform="matrix(0.04938271604938272,0,0,0.04938271604938272,12.790123456790125,0)" xlink:href="#w"/><use transform="matrix(0.04938271604938272,0,0,0.04938271604938272,22.66666666666667,0)" xlink:href="#x"/><use transform="matrix(0.04938271604938272,0,0,0.04938271604938272,33.48148148148149,0)" xlink:href="#y"/><use transform="matrix(0.04938271604938272,0,0,0.04938271604938272,44.296296296296305,0)" xlink:href="#t"/></g><path fill="#333" d="M25 0v-261h50V0H25" id="z"/><path fill="#333" d="M110-194c64 0 96 36 96 99 0 64-35 99-97 99-61 0-95-36-95-99 0-62 34-99 96-99zm-1 164c35 0 45-28 45-65 0-40-10-65-43-65-34 0-45 26-45 65 0 36 10 65 43 65" id="A"/><path fill="#333" d="M190-63c-7 42-38 67-86 67-59 0-84-38-90-98-12-110 154-137 174-36l-49 2c-2-19-15-32-35-32-30 0-35 28-38 64-6 74 65 87 74 30" id="B"/><path fill="#333" d="M115-3C79 11 28 4 28-45v-112H4v-33h27l15-45h31v45h36v33H77v99c-1 23 16 31 38 25v30" id="C"/><g id="f"><use transform="matrix(0.04938271604938272,0,0,0.04938271604938272,0,0)" xlink:href="#q"/><use transform="matrix(0.04938271604938272,0,0,0.04938271604938272,12.790123456790125,0)" xlink:href="#z"/><use transform="matrix(0.04938271604938272,0,0,0.04938271604938272,17.7283950617284,0)" xlink:href="#z"/><use transform="matrix(0.04938271604938272,0,0,0.04938271604938272,22.66666666666667,0)" xlink:href="#A"/><use transform="matrix(0.04938271604938272,0,0,0.04938271604938272,33.48148148148149,0)" xlink:href="#B"/><use transform="matrix(0.04938271604938272,0,0,0.04938271604938272,43.35802469135803,0)" xlink:href="#w"/><use transform="matrix(0.04938271604938272,0,0,0.04938271604938272,53.23456790123457,0)" xlink:href="#C"/><use transform="matrix(0.04938271604938272,0,0,0.04938271604938272,59.111111111111114,0)" xlink:href="#t"/><use transform="matrix(0.04938271604938272,0,0,0.04938271604938272,68.98765432098767,0)" xlink:href="#r"/></g><path fill="#333" d="M238-95c0 69-44 99-111 99C63 4 22-25 22-93v-155h51v151c-1 38 19 59 55 60 90 1 49-130 58-211h52v153" id="D"/><path fill="#333" d="M85 4C-2 5 27-109 22-190h50c7 57-23 150 33 157 60-5 35-97 40-157h50l1 190h-47c-2-12 1-28-3-38-12 25-28 42-61 42" id="E"/><g id="g"><use transform="matrix(0.04938271604938272,0,0,0.04938271604938272,0,0)" xlink:href="#D"/><use transform="matrix(0.04938271604938272,0,0,0.04938271604938272,12.790123456790125,0)" xlink:href="#x"/><use transform="matrix(0.04938271604938272,0,0,0.04938271604938272,23.60493827160494,0)" xlink:href="#E"/><use transform="matrix(0.04938271604938272,0,0,0.04938271604938272,34.41975308641975,0)" xlink:href="#u"/><use transform="matrix(0.04938271604938272,0,0,0.04938271604938272,44.2962962962963,0)" xlink:href="#t"/><use transform="matrix(0.04938271604938272,0,0,0.04938271604938272,54.17283950617284,0)" xlink:href="#r"/></g></defs></g></svg>