<?xml version="1.0" encoding="UTF-8"?>
<!DOCTYPE svg PUBLIC "-//W3C//DTD SVG 1.1//EN" "http://www.w3.org/Graphics/SVG/1.1/DTD/svg11.dtd">
<svg xmlns="http://www.w3.org/2000/svg" xmlns:xlink="http://www.w3.org/1999/xlink" version="1.1" width="817px" height="1071px" viewBox="-0.5 -0.5 817 1071"><defs><pattern patternUnits="userSpaceOnUse" width="11.5" height="11.5" x="0" y="0" patternTransform="rotate(45)" id="mx-pattern-hatch-1-dae8fc-0"><line x1="0" y1="0" x2="0" y2="11.5" stroke="#dae8fc" stroke-width="1.5"/></pattern></defs><g><rect x="0" y="0" width="380" height="330" fill="rgb(255, 255, 255)" stroke="rgb(0, 0, 0)" pointer-events="all"/><rect x="10" y="40" width="80" height="280" fill="rgb(255, 255, 255)" stroke="#000000" stroke-width="2" pointer-events="all"/><rect x="10" y="40" width="80" height="280" fill="rgb(255, 255, 255)" stroke="#ff0011" stroke-width="3" stroke-dasharray="9 9" pointer-events="all"/><rect x="10" y="40" width="80" height="30" fill="#dae8fc" stroke="#000000" pointer-events="all"/><rect x="10" y="70" width="80" height="30" fill="url(#mx-pattern-hatch-1-dae8fc-0)" stroke="#000000" pointer-events="all"/><rect x="10" y="100" width="80" height="10" fill="#dae8fc" stroke="#000000" pointer-events="all"/><rect x="10" y="110" width="80" height="30" fill="url(#mx-pattern-hatch-1-dae8fc-0)" stroke="#000000" pointer-events="all"/><rect x="10" y="140" width="80" height="30" fill="#dae8fc" stroke="#000000" pointer-events="all"/><rect x="101" y="40" width="80" height="280" fill="rgb(255, 255, 255)" stroke="rgb(0, 0, 0)" pointer-events="all"/><rect x="101" y="40" width="80" height="30" fill="#dae8fc" stroke="#000000" pointer-events="all"/><rect x="101" y="70" width="80" height="30" fill="url(#mx-pattern-hatch-1-dae8fc-0)" stroke="#000000" pointer-events="all"/><rect x="101" y="100" width="80" height="10" fill="#dae8fc" stroke="#000000" pointer-events="all"/><rect x="101" y="110" width="80" height="30" fill="url(#mx-pattern-hatch-1-dae8fc-0)" stroke="#000000" pointer-events="all"/><rect x="101" y="140" width="80" height="170" fill="#dae8fc" stroke="#000000" pointer-events="all"/><rect x="195.5" y="40" width="80" height="280" fill="rgb(255, 255, 255)" stroke="rgb(0, 0, 0)" pointer-events="all"/><rect x="195.5" y="40" width="80" height="30" fill="#dae8fc" stroke="#000000" pointer-events="all"/><rect x="195.5" y="70" width="80" height="30" fill="url(#mx-pattern-hatch-1-dae8fc-0)" stroke="#000000" pointer-events="all"/><rect x="195.5" y="100" width="80" height="10" fill="#dae8fc" stroke="#000000" pointer-events="all"/><rect x="195.5" y="110" width="80" height="140" fill="url(#mx-pattern-hatch-1-dae8fc-0)" stroke="#000000" pointer-events="all"/><rect x="195.5" y="250" width="80" height="70" fill="#dae8fc" stroke="#000000" pointer-events="all"/><rect x="288" y="40" width="80" height="280" fill="rgb(255, 255, 255)" stroke="rgb(0, 0, 0)" pointer-events="all"/><rect x="288" y="40" width="80" height="30" fill="#dae8fc" stroke="#000000" pointer-events="all"/><rect x="288" y="70" width="80" height="30" fill="url(#mx-pattern-hatch-1-dae8fc-0)" stroke="#000000" pointer-events="all"/><rect x="288" y="100" width="80" height="10" fill="#dae8fc" stroke="#000000" pointer-events="all"/><rect x="288" y="110" width="80" height="180" fill="url(#mx-pattern-hatch-1-dae8fc-0)" stroke="#000000" pointer-events="all"/><rect x="288" y="290" width="80" height="30" fill="#dae8fc" stroke="#000000" pointer-events="all"/><rect x="435" y="0" width="380" height="330" fill="rgb(255, 255, 255)" stroke="rgb(0, 0, 0)" pointer-events="all"/><rect x="445" y="40" width="80" height="280" fill="rgb(255, 255, 255)" stroke="rgb(0, 0, 0)" pointer-events="all"/><rect x="445" y="40" width="80" height="30" fill="#dae8fc" stroke="#000000" pointer-events="all"/><rect x="445" y="70" width="80" height="10" fill="#dae8fc" stroke="#000000" pointer-events="all"/><rect x="445" y="80" width="80" height="30" fill="#dae8fc" stroke="#000000" pointer-events="all"/><rect x="536" y="40" width="80" height="280" fill="rgb(255, 255, 255)" stroke="rgb(0, 0, 0)" pointer-events="all"/><rect x="536" y="40" width="80" height="30" fill="#dae8fc" stroke="#000000" pointer-events="all"/><rect x="536" y="70" width="80" height="30" fill="url(#mx-pattern-hatch-1-dae8fc-0)" stroke="#000000" pointer-events="all"/><rect x="536" y="100" width="80" height="10" fill="#dae8fc" stroke="#000000" pointer-events="all"/><rect x="536" y="110" width="80" height="30" fill="url(#mx-pattern-hatch-1-dae8fc-0)" stroke="#000000" pointer-events="all"/><rect x="536" y="140" width="80" height="170" fill="#dae8fc" stroke="#000000" pointer-events="all"/><rect x="630.5" y="40" width="80" height="280" fill="rgb(255, 255, 255)" stroke="rgb(0, 0, 0)" pointer-events="all"/><rect x="630.5" y="40" width="80" height="30" fill="#dae8fc" stroke="#000000" pointer-events="all"/><rect x="630.5" y="70" width="80" height="30" fill="url(#mx-pattern-hatch-1-dae8fc-0)" stroke="#000000" pointer-events="all"/><rect x="630.5" y="100" width="80" height="10" fill="#dae8fc" stroke="#000000" pointer-events="all"/><rect x="630.5" y="110" width="80" height="140" fill="url(#mx-pattern-hatch-1-dae8fc-0)" stroke="#000000" pointer-events="all"/><rect x="630.5" y="250" width="80" height="70" fill="#dae8fc" stroke="#000000" pointer-events="all"/><rect x="723" y="40" width="80" height="280" fill="rgb(255, 255, 255)" stroke="rgb(0, 0, 0)" pointer-events="all"/><rect x="723" y="40" width="80" height="30" fill="#dae8fc" stroke="#000000" pointer-events="all"/><rect x="723" y="70" width="80" height="30" fill="url(#mx-pattern-hatch-1-dae8fc-0)" stroke="#000000" pointer-events="all"/><rect x="723" y="100" width="80" height="10" fill="#dae8fc" stroke="#000000" pointer-events="all"/><rect x="723" y="110" width="80" height="180" fill="url(#mx-pattern-hatch-1-dae8fc-0)" stroke="#000000" pointer-events="all"/><rect x="723" y="290" width="80" height="30" fill="#dae8fc" stroke="#000000" pointer-events="all"/><path d="M 389.5 170 L 389.5 160 L 409.5 160 L 409.5 149.5 L 428.5 165 L 409.5 180.5 L 409.5 170 Z" fill="#000000" stroke="rgb(0, 0, 0)" stroke-miterlimit="10" pointer-events="all"/><rect x="0" y="370" width="380" height="330" fill="rgb(255, 255, 255)" stroke="rgb(0, 0, 0)" pointer-events="all"/><rect x="10" y="410" width="80" height="280" fill="rgb(255, 255, 255)" stroke="#000000" stroke-width="2" pointer-events="all"/><rect x="10" y="410" width="80" height="280" fill="rgb(255, 255, 255)" stroke="#ff0011" stroke-width="3" stroke-dasharray="9 9" pointer-events="all"/><rect x="10" y="410" width="80" height="30" fill="#dae8fc" stroke="#000000" pointer-events="all"/><rect x="10" y="440" width="80" height="30" fill="url(#mx-pattern-hatch-1-dae8fc-0)" stroke="#000000" pointer-events="all"/><rect x="10" y="470" width="80" height="10" fill="#dae8fc" stroke="#000000" pointer-events="all"/><rect x="10" y="480" width="80" height="30" fill="url(#mx-pattern-hatch-1-dae8fc-0)" stroke="#000000" pointer-events="all"/><rect x="10" y="510" width="80" height="30" fill="#dae8fc" stroke="#000000" pointer-events="all"/><rect x="101" y="410" width="80" height="280" fill="rgb(255, 255, 255)" stroke="rgb(0, 0, 0)" pointer-events="all"/><rect x="101" y="410" width="80" height="30" fill="#dae8fc" stroke="#000000" pointer-events="all"/><rect x="101" y="440" width="80" height="30" fill="url(#mx-pattern-hatch-1-dae8fc-0)" stroke="#000000" pointer-events="all"/><rect x="101" y="470" width="80" height="10" fill="#dae8fc" stroke="#000000" pointer-events="all"/><rect x="101" y="480" width="80" height="30" fill="url(#mx-pattern-hatch-1-dae8fc-0)" stroke="#000000" pointer-events="all"/><rect x="101" y="510" width="80" height="170" fill="#dae8fc" stroke="#000000" pointer-events="all"/><rect x="195.5" y="410" width="80" height="280" fill="rgb(255, 255, 255)" stroke="rgb(0, 0, 0)" pointer-events="all"/><rect x="195.5" y="410" width="80" height="30" fill="#dae8fc" stroke="#000000" pointer-events="all"/><rect x="195.5" y="440" width="80" height="30" fill="url(#mx-pattern-hatch-1-dae8fc-0)" stroke="#000000" pointer-events="all"/><rect x="195.5" y="470" width="80" height="10" fill="#dae8fc" stroke="#000000" pointer-events="all"/><rect x="195.5" y="480" width="80" height="140" fill="url(#mx-pattern-hatch-1-dae8fc-0)" stroke="#000000" pointer-events="all"/><rect x="195.5" y="620" width="80" height="70" fill="#dae8fc" stroke="#000000" pointer-events="all"/><rect x="435" y="370" width="380" height="330" fill="rgb(255, 255, 255)" stroke="rgb(0, 0, 0)" pointer-events="all"/><rect x="445" y="410" width="80" height="280" fill="rgb(255, 255, 255)" stroke="#858585" stroke-width="2" stroke-dasharray="6 6" pointer-events="all"/><rect x="536" y="410" width="80" height="280" fill="rgb(255, 255, 255)" stroke="rgb(0, 0, 0)" pointer-events="all"/><rect x="536" y="410" width="80" height="30" fill="#dae8fc" stroke="#000000" pointer-events="all"/><rect x="536" y="440" width="80" height="30" fill="url(#mx-pattern-hatch-1-dae8fc-0)" stroke="#000000" pointer-events="all"/><rect x="536" y="470" width="80" height="10" fill="#dae8fc" stroke="#000000" pointer-events="all"/><rect x="536" y="480" width="80" height="30" fill="url(#mx-pattern-hatch-1-dae8fc-0)" stroke="#000000" pointer-events="all"/><rect x="536" y="510" width="80" height="170" fill="#dae8fc" stroke="#000000" pointer-events="all"/><rect x="630.5" y="410" width="80" height="280" fill="rgb(255, 255, 255)" stroke="rgb(0, 0, 0)" pointer-events="all"/><rect x="630.5" y="410" width="80" height="30" fill="#dae8fc" stroke="#000000" pointer-events="all"/><rect x="630.5" y="440" width="80" height="30" fill="url(#mx-pattern-hatch-1-dae8fc-0)" stroke="#000000" pointer-events="all"/><rect x="630.5" y="470" width="80" height="10" fill="#dae8fc" stroke="#000000" pointer-events="all"/><rect x="630.5" y="480" width="80" height="140" fill="url(#mx-pattern-hatch-1-dae8fc-0)" stroke="#000000" pointer-events="all"/><rect x="630.5" y="620" width="80" height="70" fill="#dae8fc" stroke="#000000" pointer-events="all"/><rect x="723" y="410" width="80" height="280" fill="rgb(255, 255, 255)" stroke="#010301" stroke-width="2" pointer-events="all"/><rect x="723" y="410" width="80" height="30" fill="#dae8fc" stroke="#000000" pointer-events="all"/><rect x="723" y="440" width="80" height="10" fill="#dae8fc" stroke="#000000" pointer-events="all"/><rect x="723" y="450" width="80" height="30" fill="#dae8fc" stroke="#000000" pointer-events="all"/><path d="M 389.5 540 L 389.5 530 L 409.5 530 L 409.5 519.5 L 428.5 535 L 409.5 550.5 L 409.5 540 Z" fill="#000000" stroke="rgb(0, 0, 0)" stroke-miterlimit="10" pointer-events="all"/><rect x="0" y="740" width="380" height="330" fill="rgb(255, 255, 255)" stroke="rgb(0, 0, 0)" pointer-events="all"/><rect x="10" y="780" width="80" height="280" fill="rgb(255, 255, 255)" stroke="#000000" stroke-width="2" pointer-events="all"/><rect x="10" y="780" width="80" height="280" fill="rgb(255, 255, 255)" stroke="#ff0011" stroke-width="3" stroke-dasharray="9 9" pointer-events="all"/><rect x="10" y="780" width="80" height="30" fill="#dae8fc" stroke="#000000" pointer-events="all"/><rect x="10" y="810" width="80" height="30" fill="url(#mx-pattern-hatch-1-dae8fc-0)" stroke="#000000" pointer-events="all"/><rect x="10" y="840" width="80" height="10" fill="#dae8fc" stroke="#000000" pointer-events="all"/><rect x="10" y="850" width="80" height="30" fill="url(#mx-pattern-hatch-1-dae8fc-0)" stroke="#000000" pointer-events="all"/><rect x="10" y="880" width="80" height="30" fill="#dae8fc" stroke="#000000" pointer-events="all"/><rect x="101" y="780" width="80" height="280" fill="rgb(255, 255, 255)" stroke="rgb(0, 0, 0)" pointer-events="all"/><rect x="101" y="780" width="80" height="30" fill="#dae8fc" stroke="#000000" pointer-events="all"/><rect x="101" y="810" width="80" height="30" fill="url(#mx-pattern-hatch-1-dae8fc-0)" stroke="#000000" pointer-events="all"/><rect x="101" y="840" width="80" height="10" fill="#dae8fc" stroke="#000000" pointer-events="all"/><rect x="101" y="850" width="80" height="30" fill="url(#mx-pattern-hatch-1-dae8fc-0)" stroke="#000000" pointer-events="all"/><rect x="101" y="880" width="80" height="170" fill="#dae8fc" stroke="#000000" pointer-events="all"/><rect x="195.5" y="780" width="80" height="280" fill="rgb(255, 255, 255)" stroke="rgb(0, 0, 0)" pointer-events="all"/><rect x="195.5" y="780" width="80" height="30" fill="#dae8fc" stroke="#000000" pointer-events="all"/><rect x="195.5" y="810" width="80" height="30" fill="url(#mx-pattern-hatch-1-dae8fc-0)" stroke="#000000" pointer-events="all"/><rect x="195.5" y="840" width="80" height="10" fill="#dae8fc" stroke="#000000" pointer-events="all"/><rect x="195.5" y="850" width="80" height="10" fill="url(#mx-pattern-hatch-1-dae8fc-0)" stroke="#000000" pointer-events="all"/><rect x="195" y="860" width="80" height="70" fill="#dae8fc" stroke="#000000" pointer-events="all"/><rect x="435" y="740" width="380" height="330" fill="rgb(255, 255, 255)" stroke="rgb(0, 0, 0)" pointer-events="all"/><rect x="445" y="780" width="80" height="280" fill="rgb(255, 255, 255)" stroke="#858585" stroke-width="2" stroke-dasharray="6 6" pointer-events="all"/><rect x="536" y="780" width="80" height="280" fill="rgb(255, 255, 255)" stroke="rgb(0, 0, 0)" pointer-events="all"/><rect x="536" y="780" width="80" height="30" fill="#dae8fc" stroke="#000000" pointer-events="all"/><rect x="536" y="810" width="80" height="30" fill="url(#mx-pattern-hatch-1-dae8fc-0)" stroke="#000000" pointer-events="all"/><rect x="536" y="840" width="80" height="10" fill="#dae8fc" stroke="#000000" pointer-events="all"/><rect x="536" y="850" width="80" height="30" fill="url(#mx-pattern-hatch-1-dae8fc-0)" stroke="#000000" pointer-events="all"/><rect x="536" y="880" width="80" height="170" fill="#dae8fc" stroke="#000000" pointer-events="all"/><rect x="630.5" y="780" width="80" height="280" fill="rgb(255, 255, 255)" stroke="rgb(0, 0, 0)" pointer-events="all"/><rect x="630.5" y="780" width="80" height="30" fill="#dae8fc" stroke="#000000" pointer-events="all"/><rect x="630.5" y="810" width="80" height="30" fill="url(#mx-pattern-hatch-1-dae8fc-0)" stroke="#000000" pointer-events="all"/><rect x="630.5" y="840" width="80" height="10" fill="#dae8fc" stroke="#000000" pointer-events="all"/><rect x="630.5" y="850" width="80" height="10" fill="url(#mx-pattern-hatch-1-dae8fc-0)" stroke="#000000" pointer-events="all"/><rect x="630.5" y="860" width="80" height="70" fill="#dae8fc" stroke="#000000" pointer-events="all"/><path d="M 389.5 910 L 389.5 900 L 409.5 900 L 409.5 889.5 L 428.5 905 L 409.5 920.5 L 409.5 910 Z" fill="#000000" stroke="rgb(0, 0, 0)" stroke-miterlimit="10" pointer-events="all"/><rect x="630.5" y="930" width="80" height="30" fill="#9ca3fc" stroke="#000000" pointer-events="all"/><rect x="630.5" y="960" width="80" height="10" fill="#9ca3fc" stroke="#000000" pointer-events="all"/><rect x="630.5" y="970" width="80" height="30" fill="#9ca3fc" stroke="#000000" pointer-events="all"/><rect x="445" y="780" width="80" height="30" fill="url(#mx-pattern-hatch-1-dae8fc-0)" stroke="#000000" stroke-dasharray="3 3" pointer-events="all"/><rect x="445" y="840" width="80" height="10" fill="url(#mx-pattern-hatch-1-dae8fc-0)" stroke="#000000" stroke-dasharray="3 3" pointer-events="all"/><rect x="445" y="880" width="80" height="30" fill="url(#mx-pattern-hatch-1-dae8fc-0)" stroke="#000000" stroke-dasharray="3 3" pointer-events="all"/><path d="M 485 810 Q 525 840 550 890 Q 575 940 622.3 944.26" fill="none" stroke="rgb(0, 0, 0)" stroke-width="2" stroke-miterlimit="10" pointer-events="stroke"/><path d="M 628.27 944.8 L 619.95 948.07 L 622.3 944.26 L 620.66 940.1 Z" fill="rgb(0, 0, 0)" stroke="rgb(0, 0, 0)" stroke-width="2" stroke-miterlimit="10" pointer-events="all"/><path d="M 485 850 Q 535 870 555 920 Q 575 970 622.3 965.74" fill="none" stroke="rgb(0, 0, 0)" stroke-width="2" stroke-miterlimit="10" pointer-events="stroke"/><path d="M 628.27 965.2 L 620.66 969.9 L 622.3 965.74 L 619.95 961.93 Z" fill="rgb(0, 0, 0)" stroke="rgb(0, 0, 0)" stroke-width="2" stroke-miterlimit="10" pointer-events="all"/><path d="M 485 910 Q 545 920 560 960 Q 575 1000 622.55 987.15" fill="none" stroke="rgb(0, 0, 0)" stroke-width="2" stroke-miterlimit="10" pointer-events="stroke"/><path d="M 628.34 985.58 L 621.66 991.53 L 622.55 987.15 L 619.57 983.81 Z" fill="rgb(0, 0, 0)" stroke="rgb(0, 0, 0)" stroke-width="2" stroke-miterlimit="10" pointer-events="all"/><rect x="445" y="410" width="80" height="30" fill="url(#mx-pattern-hatch-1-dae8fc-0)" stroke="#000000" stroke-dasharray="3 3" pointer-events="all"/><rect x="445" y="470" width="80" height="10" fill="url(#mx-pattern-hatch-1-dae8fc-0)" stroke="#000000" stroke-dasharray="3 3" pointer-events="all"/><rect x="445" y="510" width="80" height="30" fill="url(#mx-pattern-hatch-1-dae8fc-0)" stroke="#000000" stroke-dasharray="3 3" pointer-events="all"/><path d="M 484.5 440 Q 535 470 600 450 Q 665 430 714.79 425.71" fill="none" stroke="rgb(0, 0, 0)" stroke-width="2" stroke-miterlimit="10" pointer-events="stroke"/><path d="M 720.77 425.19 L 713.15 429.86 L 714.79 425.71 L 712.46 421.89 Z" fill="rgb(0, 0, 0)" stroke="rgb(0, 0, 0)" stroke-width="2" stroke-miterlimit="10" pointer-events="all"/><path d="M 484.5 480 Q 534.5 500 594.75 475 Q 655 450 714.79 445.6" fill="none" stroke="rgb(0, 0, 0)" stroke-width="2" stroke-miterlimit="10" pointer-events="stroke"/><path d="M 720.77 445.16 L 713.08 449.74 L 714.79 445.6 L 712.5 441.76 Z" fill="rgb(0, 0, 0)" stroke="rgb(0, 0, 0)" stroke-width="2" stroke-miterlimit="10" pointer-events="all"/><path d="M 484.5 540 Q 555 580 600 530 Q 645 480 714.91 466.56" fill="none" stroke="rgb(0, 0, 0)" stroke-width="2" stroke-miterlimit="10" pointer-events="stroke"/><path d="M 720.8 465.42 L 713.7 470.86 L 714.91 466.56 L 712.19 463.01 Z" fill="rgb(0, 0, 0)" stroke="rgb(0, 0, 0)" stroke-width="2" stroke-miterlimit="10" pointer-events="all"/></g></svg>